<svg xmlns="http://www.w3.org/2000/svg" xmlns:xlink="http://www.w3.org/1999/xlink" width="200" zoomAndPan="magnify" viewBox="0 0 150 97.5" height="130" preserveAspectRatio="xMidYMid meet" version="1.0"><defs><g/><clipPath id="00acac69aa"><path d="M 0.382812 58.121094 L 149.617188 58.121094 L 149.617188 96.921875 L 0.382812 96.921875 Z M 0.382812 58.121094 " clip-rule="nonzero"/></clipPath><clipPath id="a4118f916f"><path d="M 21.636719 15.683594 L 128.339844 15.683594 L 128.339844 32.097656 L 21.636719 32.097656 Z M 21.636719 15.683594 " clip-rule="nonzero"/></clipPath></defs><g fill="#ffffff" fill-opacity="1"><g transform="translate(41.210429, 80.064565)"><g><path d="M 10.617188 -36.300781 C 10.730469 -36.300781 10.730469 -36.300781 10.84375 -36.300781 C 10.84375 -36.300781 10.957031 -36.300781 10.957031 -36.300781 C 11.984375 -36.300781 12.898438 -36.300781 13.925781 -36.300781 C 14.15625 -36.414062 14.269531 -36.414062 14.496094 -36.414062 C 14.609375 -36.414062 14.726562 -36.300781 14.839844 -36.300781 C 15.066406 -36.070312 15.410156 -35.84375 15.636719 -35.613281 C 15.867188 -35.386719 15.980469 -35.15625 16.09375 -34.929688 C 16.210938 -34.703125 16.4375 -34.472656 16.4375 -34.246094 C 16.550781 -34.015625 16.550781 -33.675781 16.664062 -33.445312 C 16.78125 -33.101562 16.78125 -32.648438 16.78125 -32.304688 C 16.78125 -31.960938 16.78125 -31.734375 16.78125 -31.390625 C 16.78125 -30.25 16.664062 -29.222656 16.78125 -28.082031 C 16.78125 -27.625 16.78125 -27.28125 16.78125 -26.824219 C 16.78125 -25.457031 16.78125 -24.085938 16.78125 -22.601562 C 16.664062 -21.6875 16.78125 -20.773438 16.78125 -19.746094 C 16.78125 -19.175781 16.78125 -18.71875 16.78125 -18.148438 C 16.78125 -17.464844 16.664062 -16.78125 16.664062 -15.980469 C 16.664062 -15.753906 16.664062 -15.523438 16.664062 -15.296875 C 16.664062 -14.382812 16.664062 -13.355469 16.664062 -12.328125 C 16.78125 -11.871094 16.78125 -11.300781 16.78125 -10.730469 C 16.78125 -9.019531 16.78125 -7.191406 16.78125 -5.363281 C 16.664062 -3.539062 16.78125 -1.710938 16.78125 0.113281 C 16.78125 0.226562 16.78125 0.226562 16.78125 0.34375 C 17.121094 0.34375 17.464844 0.34375 17.808594 0.34375 C 18.605469 0.34375 19.519531 0.34375 20.320312 0.34375 C 21.003906 0.226562 21.6875 0.34375 22.375 0.226562 C 22.601562 0.226562 22.714844 0.226562 22.945312 0.226562 C 22.945312 0.113281 22.945312 0.113281 22.945312 0 C 22.945312 -0.113281 22.945312 -0.226562 22.945312 -0.34375 C 23.058594 -0.800781 23.058594 -1.371094 23.058594 -1.828125 C 23.058594 -2.625 23.058594 -3.425781 23.058594 -4.109375 C 22.945312 -4.679688 23.058594 -5.363281 22.945312 -5.9375 C 22.945312 -6.621094 22.945312 -7.304688 22.945312 -7.992188 C 22.945312 -8.445312 23.058594 -9.019531 23.058594 -9.472656 C 23.058594 -10.386719 23.058594 -11.300781 23.058594 -12.214844 C 23.058594 -12.554688 23.058594 -12.898438 23.058594 -13.242188 C 23.058594 -14.953125 23.058594 -16.664062 23.058594 -18.492188 C 23.058594 -19.863281 22.945312 -21.230469 23.058594 -22.601562 C 23.058594 -23.058594 23.058594 -23.628906 23.058594 -24.085938 C 23.058594 -24.429688 23.171875 -24.65625 23.058594 -24.882812 C 23.058594 -26.253906 23.058594 -27.511719 23.058594 -28.765625 C 23.058594 -29.449219 23.171875 -30.136719 23.171875 -30.820312 C 23.058594 -31.277344 23.058594 -31.847656 23.058594 -32.304688 C 23.058594 -32.304688 23.058594 -32.417969 23.058594 -32.417969 C 22.945312 -32.761719 22.945312 -33.21875 22.828125 -33.558594 C 22.828125 -33.902344 22.714844 -34.359375 22.714844 -34.703125 C 22.601562 -35.15625 22.488281 -35.730469 22.375 -36.183594 C 22.257812 -36.414062 22.144531 -36.640625 22.03125 -36.984375 C 21.800781 -37.554688 21.460938 -38.238281 21.003906 -38.925781 C 20.890625 -39.152344 20.660156 -39.496094 20.546875 -39.722656 C 20.546875 -39.839844 20.660156 -39.953125 20.660156 -39.953125 C 21.003906 -40.410156 21.347656 -40.980469 21.574219 -41.4375 C 21.800781 -42.007812 22.03125 -42.578125 22.257812 -43.035156 C 22.375 -43.261719 22.488281 -43.605469 22.488281 -43.832031 C 22.714844 -44.402344 22.828125 -44.976562 22.828125 -45.546875 C 22.828125 -45.886719 22.828125 -46.117188 22.945312 -46.34375 C 22.945312 -46.6875 22.945312 -47.03125 23.058594 -47.371094 C 23.058594 -48.285156 22.945312 -49.199219 23.058594 -49.996094 C 23.058594 -50.910156 23.058594 -51.824219 23.058594 -52.621094 C 23.171875 -53.535156 23.171875 -54.335938 23.058594 -55.132812 C 23.058594 -55.476562 23.058594 -55.820312 23.058594 -56.160156 C 23.058594 -56.960938 23.058594 -57.757812 23.058594 -58.558594 C 23.171875 -58.785156 23.058594 -59.015625 23.058594 -59.242188 C 23.058594 -59.585938 23.058594 -59.8125 23.058594 -60.15625 C 23.058594 -60.386719 22.945312 -60.613281 22.945312 -60.839844 C 22.945312 -60.957031 22.945312 -61.070312 22.945312 -61.183594 C 22.945312 -61.296875 23.058594 -61.296875 23.058594 -61.414062 C 23.058594 -62.097656 23.058594 -62.78125 23.058594 -63.582031 C 23.058594 -65.292969 23.058594 -67.003906 23.058594 -68.605469 C 23.058594 -68.71875 23.058594 -68.71875 23.058594 -68.832031 C 23.058594 -69.175781 22.945312 -69.515625 22.945312 -69.859375 C 22.945312 -70.203125 22.828125 -70.542969 22.828125 -70.886719 C 22.714844 -71.34375 22.601562 -71.800781 22.488281 -72.257812 C 22.375 -72.941406 22.144531 -73.511719 21.800781 -74.082031 C 21.574219 -74.539062 21.347656 -74.996094 21.117188 -75.339844 C 21.003906 -75.679688 20.773438 -75.910156 20.660156 -76.136719 C 20.433594 -76.25 20.320312 -76.480469 20.320312 -76.59375 C 20.203125 -76.824219 20.089844 -76.9375 19.976562 -77.050781 C 19.746094 -77.394531 19.40625 -77.621094 19.175781 -77.851562 C 19.0625 -77.964844 18.949219 -78.078125 18.835938 -78.191406 C 18.71875 -78.304688 18.605469 -78.304688 18.492188 -78.421875 C 18.035156 -78.648438 17.464844 -78.992188 17.007812 -79.21875 C 16.550781 -79.332031 16.09375 -79.5625 15.636719 -79.5625 C 15.523438 -79.5625 15.296875 -79.5625 15.183594 -79.5625 C 14.839844 -79.675781 14.609375 -79.675781 14.382812 -79.675781 C 13.699219 -79.675781 12.898438 -79.675781 12.214844 -79.789062 C 11.984375 -79.789062 11.644531 -79.675781 11.300781 -79.675781 C 10.957031 -79.675781 10.5 -79.675781 10.160156 -79.675781 C 9.246094 -79.675781 8.332031 -79.675781 7.417969 -79.675781 C 6.964844 -79.5625 6.507812 -79.675781 5.9375 -79.675781 C 5.59375 -79.5625 5.136719 -79.5625 4.679688 -79.5625 C 4.566406 -79.5625 4.335938 -79.5625 4.222656 -79.5625 C 4.222656 -79.449219 4.109375 -79.449219 4.109375 -79.332031 C 4.109375 -78.761719 4.222656 -78.078125 4.109375 -77.507812 C 4.109375 -76.707031 4.109375 -76.023438 4.109375 -75.222656 C 4.109375 -74.882812 4.109375 -74.539062 4.109375 -74.195312 C 4.109375 -73.96875 4.109375 -73.855469 4.109375 -73.625 C 4.109375 -73.285156 4.109375 -73.054688 4.109375 -72.828125 C 4.109375 -72.597656 4.109375 -72.484375 4.109375 -72.371094 C 4.109375 -72.371094 4.109375 -72.257812 4.109375 -72.257812 C 4.109375 -72.027344 4.109375 -71.914062 4.109375 -71.6875 C 4.109375 -71.230469 4.109375 -70.660156 4.222656 -70.203125 C 4.222656 -70.085938 4.222656 -70.085938 4.222656 -70.085938 C 4.222656 -69.632812 4.222656 -69.289062 4.222656 -68.832031 C 4.222656 -68.488281 4.335938 -68.03125 4.335938 -67.691406 C 4.335938 -67.347656 4.335938 -67.003906 4.335938 -66.664062 C 4.335938 -66.433594 4.335938 -66.320312 4.335938 -66.207031 C 4.335938 -65.636719 4.335938 -65.179688 4.335938 -64.609375 C 4.222656 -64.039062 4.222656 -63.351562 4.222656 -62.78125 C 4.222656 -61.527344 4.222656 -60.269531 4.335938 -59.128906 C 4.335938 -58.101562 4.335938 -57.1875 4.335938 -56.277344 C 4.335938 -53.765625 4.335938 -51.367188 4.335938 -48.96875 C 4.335938 -47.714844 4.335938 -46.457031 4.335938 -45.316406 C 4.335938 -44.289062 4.335938 -43.375 4.335938 -42.464844 C 4.335938 -41.09375 4.335938 -39.839844 4.335938 -38.46875 C 4.335938 -37.097656 4.335938 -35.730469 4.335938 -34.359375 C 4.222656 -33.558594 4.335938 -32.761719 4.222656 -31.960938 C 4.222656 -31.503906 4.222656 -31.164062 4.222656 -30.707031 C 4.222656 -30.59375 4.222656 -30.476562 4.222656 -30.363281 C 4.222656 -30.019531 4.222656 -29.679688 4.222656 -29.449219 C 4.109375 -28.878906 4.109375 -28.421875 4.109375 -27.851562 C 4.109375 -26.9375 4.109375 -26.027344 4.109375 -25.113281 C 3.996094 -24.769531 4.109375 -24.542969 4.109375 -24.3125 C 4.109375 -21.460938 4.109375 -18.605469 4.109375 -15.867188 C 4.109375 -15.523438 4.109375 -15.183594 4.109375 -14.839844 C 4.109375 -14.382812 4.109375 -13.8125 4.109375 -13.355469 C 4.109375 -13.128906 4.109375 -12.785156 4.109375 -12.554688 C 4.222656 -12.101562 4.222656 -11.644531 4.222656 -11.1875 C 4.222656 -10.617188 4.222656 -10.046875 4.222656 -9.589844 C 4.335938 -9.132812 4.222656 -8.5625 4.335938 -8.105469 C 4.335938 -6.964844 4.335938 -5.707031 4.335938 -4.453125 C 4.335938 -3.652344 4.335938 -2.855469 4.335938 -2.054688 C 4.335938 -1.710938 4.335938 -1.484375 4.335938 -1.253906 C 4.335938 -1.027344 4.335938 -0.914062 4.335938 -0.683594 C 4.335938 -0.457031 4.335938 -0.226562 4.335938 0.113281 C 4.335938 0.113281 4.453125 0.226562 4.453125 0.226562 C 4.453125 0.226562 4.566406 0.226562 4.566406 0.226562 C 5.023438 0.226562 5.480469 0.226562 5.9375 0.226562 C 6.964844 0.226562 8.105469 0.113281 9.246094 0.226562 C 9.589844 0.226562 9.929688 0.226562 10.273438 0.226562 C 10.273438 0.226562 10.386719 0.226562 10.386719 0.226562 C 10.386719 -0.457031 10.386719 -1.027344 10.386719 -1.597656 C 10.386719 -2.96875 10.386719 -4.222656 10.5 -5.59375 C 10.5 -6.277344 10.5 -6.847656 10.5 -7.535156 C 10.5 -7.648438 10.5 -7.761719 10.5 -7.875 C 10.5 -7.992188 10.5 -8.105469 10.5 -8.21875 C 10.5 -9.703125 10.5 -11.074219 10.5 -12.441406 C 10.5 -12.898438 10.5 -13.355469 10.5 -13.925781 C 10.386719 -14.382812 10.386719 -14.839844 10.386719 -15.296875 C 10.386719 -16.664062 10.386719 -18.035156 10.386719 -19.40625 C 10.386719 -20.660156 10.386719 -22.03125 10.386719 -23.402344 C 10.273438 -24.542969 10.273438 -25.683594 10.386719 -26.824219 C 10.386719 -27.167969 10.386719 -27.625 10.386719 -27.964844 C 10.386719 -28.539062 10.5 -29.222656 10.5 -29.792969 C 10.5 -30.59375 10.5 -31.390625 10.5 -32.191406 C 10.5 -32.761719 10.5 -33.21875 10.617188 -33.789062 C 10.617188 -34.472656 10.617188 -35.273438 10.617188 -35.957031 C 10.617188 -36.070312 10.617188 -36.070312 10.617188 -36.300781 Z M 10.5 -72.941406 C 10.617188 -72.941406 10.730469 -72.941406 10.84375 -72.941406 C 11.871094 -72.941406 12.898438 -72.941406 13.925781 -72.941406 C 14.269531 -72.941406 14.609375 -72.828125 14.953125 -72.714844 C 15.410156 -72.597656 15.636719 -72.257812 15.980469 -71.914062 C 15.980469 -71.800781 16.09375 -71.6875 16.210938 -71.570312 C 16.4375 -71.230469 16.550781 -70.886719 16.664062 -70.542969 C 16.664062 -70.203125 16.78125 -69.859375 16.78125 -69.632812 C 16.78125 -68.488281 16.78125 -67.347656 16.78125 -66.320312 C 16.78125 -65.976562 16.78125 -65.523438 16.78125 -65.179688 C 16.78125 -64.722656 16.664062 -64.265625 16.664062 -63.695312 C 16.664062 -63.695312 16.664062 -63.582031 16.664062 -63.582031 C 16.664062 -62.78125 16.664062 -62.097656 16.664062 -61.414062 C 16.664062 -60.726562 16.664062 -60.042969 16.78125 -59.359375 C 16.78125 -58.332031 16.78125 -57.417969 16.78125 -56.390625 C 16.78125 -56.046875 16.78125 -55.820312 16.78125 -55.476562 C 16.78125 -54.792969 16.78125 -54.105469 16.894531 -53.421875 C 16.894531 -52.851562 16.894531 -52.28125 16.894531 -51.710938 C 16.894531 -50.226562 16.894531 -48.628906 16.894531 -47.144531 C 16.894531 -46.800781 16.894531 -46.457031 16.78125 -46.117188 C 16.78125 -45.886719 16.664062 -45.660156 16.664062 -45.429688 C 16.4375 -44.976562 16.210938 -44.519531 15.867188 -44.175781 C 15.636719 -43.832031 15.296875 -43.492188 14.953125 -43.261719 C 14.609375 -43.148438 14.269531 -43.035156 13.925781 -43.035156 C 13.46875 -43.035156 13.128906 -43.035156 12.671875 -43.035156 C 12.214844 -43.035156 11.757812 -43.035156 11.300781 -43.035156 C 11.074219 -43.035156 10.957031 -43.035156 10.730469 -43.035156 C 10.730469 -43.035156 10.617188 -43.035156 10.5 -43.035156 C 10.5 -43.261719 10.386719 -43.492188 10.386719 -43.71875 C 10.386719 -44.632812 10.386719 -45.546875 10.386719 -46.457031 C 10.5 -47.144531 10.5 -47.828125 10.5 -48.511719 C 10.5 -49.199219 10.5 -49.882812 10.5 -50.566406 C 10.617188 -51.023438 10.617188 -51.480469 10.617188 -51.9375 C 10.617188 -53.078125 10.617188 -54.222656 10.617188 -55.476562 C 10.617188 -55.933594 10.5 -56.390625 10.5 -56.847656 C 10.5 -56.960938 10.5 -56.960938 10.5 -57.074219 C 10.386719 -58.558594 10.386719 -60.042969 10.386719 -61.527344 C 10.386719 -63.011719 10.386719 -64.378906 10.386719 -65.863281 C 10.5 -66.433594 10.5 -67.121094 10.5 -67.691406 C 10.5 -68.03125 10.5 -68.375 10.5 -68.71875 C 10.617188 -69.289062 10.617188 -69.859375 10.617188 -70.429688 C 10.5 -71 10.5 -71.570312 10.5 -72.140625 C 10.5 -72.371094 10.5 -72.597656 10.5 -72.828125 C 10.5 -72.828125 10.5 -72.828125 10.5 -72.941406 Z M 10.5 -72.941406 "/></g></g></g><g fill="#ffffff" fill-opacity="1"><g transform="translate(68.377987, 80.064565)"><g><path d="M 4.109375 -79.789062 C 4.109375 -79.675781 4.109375 -79.5625 4.109375 -79.332031 C 4.109375 -78.992188 4.109375 -78.648438 4.109375 -78.304688 C 4.109375 -78.191406 4.109375 -78.078125 4.109375 -77.964844 C 4.109375 -77.394531 3.996094 -76.824219 3.996094 -76.367188 C 3.996094 -76.023438 4.109375 -75.679688 4.109375 -75.339844 C 4.109375 -74.195312 4.109375 -72.941406 3.996094 -71.800781 C 3.996094 -69.402344 3.996094 -67.003906 4.109375 -64.609375 C 4.109375 -62.554688 4.109375 -60.613281 4.109375 -58.558594 C 4.109375 -57.644531 4.109375 -56.730469 3.996094 -55.820312 C 3.996094 -54.792969 3.996094 -53.765625 3.996094 -52.738281 C 3.996094 -51.253906 3.996094 -49.769531 3.996094 -48.285156 C 3.996094 -47.484375 4.109375 -46.800781 4.109375 -46.003906 C 4.109375 -43.949219 4.109375 -41.894531 3.996094 -39.839844 C 3.996094 -39.152344 3.996094 -38.355469 3.996094 -37.667969 C 3.996094 -36.414062 3.996094 -35.042969 4.109375 -33.789062 C 4.109375 -33.21875 4.109375 -32.648438 4.109375 -32.074219 C 4.109375 -31.277344 4.109375 -30.59375 3.996094 -29.792969 C 3.996094 -29.222656 3.996094 -28.652344 3.996094 -28.082031 C 3.996094 -25.796875 3.996094 -23.402344 3.996094 -21.117188 C 4.109375 -19.746094 3.996094 -18.378906 4.109375 -17.007812 C 4.109375 -16.550781 4.109375 -16.09375 4.109375 -15.753906 C 4.109375 -14.496094 3.996094 -13.355469 4.109375 -12.214844 C 4.109375 -11.871094 4.109375 -11.414062 4.109375 -10.957031 C 4.109375 -9.816406 4.109375 -8.675781 4.109375 -7.535156 C 4.109375 -7.535156 4.109375 -7.535156 4.109375 -7.417969 C 3.996094 -7.078125 3.996094 -6.621094 3.996094 -6.164062 C 3.996094 -4.335938 3.996094 -2.625 3.996094 -0.800781 C 3.996094 -0.457031 3.996094 -0.226562 3.996094 0 C 3.996094 0 3.996094 0 4.109375 0 C 4.679688 0 5.363281 0 5.9375 0.113281 C 6.507812 0.113281 7.191406 0.113281 7.761719 0 C 8.5625 0 9.246094 0 10.046875 0 C 10.046875 0 10.160156 0 10.160156 0 C 10.160156 -0.113281 10.160156 -0.113281 10.160156 -0.113281 C 10.273438 -1.710938 10.160156 -3.308594 10.273438 -4.910156 C 10.273438 -6.050781 10.273438 -7.191406 10.273438 -8.332031 C 10.273438 -10.84375 10.273438 -13.355469 10.273438 -15.867188 C 10.273438 -17.464844 10.273438 -19.0625 10.273438 -20.660156 C 10.273438 -21.574219 10.273438 -22.601562 10.160156 -23.628906 C 10.160156 -24.429688 10.160156 -25.226562 10.160156 -25.910156 C 10.273438 -27.394531 10.160156 -28.765625 10.273438 -30.25 C 10.273438 -31.046875 10.273438 -31.847656 10.273438 -32.648438 C 10.273438 -34.359375 10.273438 -36.070312 10.273438 -37.785156 C 10.273438 -39.496094 10.273438 -41.207031 10.273438 -42.921875 C 10.273438 -43.832031 10.273438 -44.632812 10.273438 -45.546875 C 10.273438 -45.773438 10.273438 -46.003906 10.273438 -46.230469 C 10.273438 -47.03125 10.273438 -47.941406 10.273438 -48.855469 C 10.273438 -49.425781 10.273438 -49.996094 10.160156 -50.453125 C 10.273438 -52.167969 10.160156 -53.765625 10.273438 -55.363281 C 10.273438 -56.503906 10.273438 -57.644531 10.273438 -58.785156 C 10.386719 -60.269531 10.273438 -61.753906 10.273438 -63.238281 C 10.386719 -64.722656 10.273438 -66.207031 10.386719 -67.691406 C 10.386719 -68.148438 10.386719 -68.605469 10.386719 -69.058594 C 10.273438 -70.542969 10.386719 -71.914062 10.273438 -73.398438 C 10.273438 -74.082031 10.273438 -74.652344 10.273438 -75.339844 C 10.273438 -76.136719 10.273438 -76.9375 10.160156 -77.734375 C 10.160156 -78.421875 10.160156 -78.992188 10.160156 -79.675781 C 10.160156 -79.789062 10.160156 -79.90625 10.160156 -79.90625 C 10.046875 -79.90625 10.046875 -79.90625 9.929688 -79.90625 C 9.589844 -79.90625 9.132812 -79.90625 8.789062 -79.90625 C 7.648438 -79.90625 6.507812 -79.90625 5.480469 -79.90625 C 5.136719 -79.90625 4.792969 -79.90625 4.335938 -79.789062 C 4.335938 -79.789062 4.222656 -79.789062 4.109375 -79.789062 Z M 4.109375 -79.789062 "/></g></g></g><g fill="#ffffff" fill-opacity="1"><g transform="translate(82.760796, 80.064565)"><g><path d="M 15.753906 -26.597656 C 15.867188 -26.367188 15.867188 -26.140625 15.867188 -26.027344 C 15.867188 -25.570312 15.867188 -25.113281 15.980469 -24.65625 C 15.980469 -24.542969 15.980469 -24.542969 15.980469 -24.429688 C 15.980469 -23.972656 15.980469 -23.402344 16.09375 -22.945312 C 16.09375 -22.601562 16.09375 -22.375 16.09375 -22.03125 C 16.09375 -22.03125 16.09375 -22.03125 16.09375 -21.917969 C 16.09375 -21.6875 16.210938 -21.347656 16.210938 -21.003906 C 16.210938 -21.003906 16.210938 -20.890625 16.210938 -20.890625 C 16.210938 -20.433594 16.210938 -19.976562 16.324219 -19.632812 C 16.324219 -19.40625 16.324219 -19.175781 16.324219 -18.949219 C 16.324219 -18.835938 16.324219 -18.835938 16.324219 -18.71875 C 16.324219 -18.492188 16.324219 -18.265625 16.4375 -18.035156 C 16.4375 -17.808594 16.4375 -17.464844 16.4375 -17.121094 C 16.4375 -16.78125 16.4375 -16.550781 16.4375 -16.210938 C 16.550781 -15.753906 16.550781 -15.183594 16.550781 -14.726562 C 16.550781 -14.382812 16.550781 -14.039062 16.664062 -13.699219 C 16.664062 -13.582031 16.664062 -13.582031 16.664062 -13.46875 C 16.664062 -13.128906 16.664062 -12.785156 16.664062 -12.441406 C 16.78125 -12.214844 16.78125 -11.871094 16.78125 -11.527344 C 16.78125 -10.957031 16.78125 -10.386719 16.78125 -9.816406 C 16.894531 -9.019531 16.894531 -8.21875 16.894531 -7.417969 C 16.894531 -7.304688 16.894531 -7.304688 16.894531 -7.304688 C 16.894531 -6.964844 16.894531 -6.734375 17.007812 -6.507812 C 17.007812 -6.164062 17.007812 -5.820312 17.007812 -5.480469 C 17.007812 -5.25 17.007812 -5.023438 17.121094 -4.910156 C 17.121094 -4.566406 17.121094 -4.222656 17.121094 -3.882812 C 17.121094 -3.882812 17.121094 -3.765625 17.121094 -3.765625 C 17.238281 -3.425781 17.238281 -2.96875 17.238281 -2.625 C 17.238281 -2.28125 17.238281 -2.054688 17.351562 -1.710938 C 17.351562 -1.484375 17.351562 -1.253906 17.351562 -1.027344 C 17.464844 -0.570312 17.578125 -0.226562 17.578125 0.113281 C 17.691406 0.113281 17.691406 0.113281 17.808594 0.113281 C 18.378906 0.113281 18.949219 0.113281 19.519531 0.113281 C 19.976562 0.113281 20.320312 0.113281 20.660156 0.113281 C 21.347656 0.113281 21.917969 0.113281 22.488281 0.113281 C 22.601562 0.113281 22.714844 0.113281 22.945312 0.113281 C 23.171875 0.226562 23.402344 0.113281 23.628906 0.113281 C 23.628906 0.113281 23.742188 0 23.628906 0 C 23.628906 -0.226562 23.628906 -0.34375 23.628906 -0.570312 C 23.628906 -0.800781 23.628906 -1.027344 23.628906 -1.253906 C 23.515625 -1.484375 23.515625 -1.597656 23.515625 -1.710938 C 23.515625 -1.941406 23.402344 -2.28125 23.402344 -2.511719 C 23.402344 -2.855469 23.402344 -3.308594 23.402344 -3.765625 C 23.285156 -4.222656 23.285156 -4.679688 23.285156 -5.136719 C 23.171875 -5.707031 23.171875 -6.277344 23.171875 -6.734375 C 23.171875 -7.078125 23.171875 -7.304688 23.171875 -7.648438 C 23.058594 -7.992188 23.058594 -8.445312 23.058594 -8.902344 C 23.058594 -9.589844 23.058594 -10.386719 23.058594 -11.1875 C 23.058594 -11.1875 23.058594 -11.300781 23.058594 -11.300781 C 23.058594 -11.644531 22.945312 -11.984375 22.945312 -12.328125 C 22.945312 -12.554688 22.945312 -12.671875 22.945312 -12.898438 C 22.828125 -13.355469 22.828125 -13.699219 22.828125 -14.039062 C 22.828125 -14.382812 22.714844 -14.839844 22.714844 -15.296875 C 22.714844 -15.296875 22.714844 -15.296875 22.714844 -15.410156 C 22.714844 -15.523438 22.714844 -15.753906 22.714844 -16.09375 C 22.601562 -16.324219 22.601562 -16.550781 22.601562 -16.78125 C 22.601562 -17.121094 22.488281 -17.578125 22.488281 -17.921875 C 22.488281 -18.265625 22.488281 -18.605469 22.375 -18.949219 C 22.375 -18.949219 22.375 -19.0625 22.375 -19.175781 C 22.375 -19.519531 22.375 -19.976562 22.257812 -20.433594 C 22.257812 -20.773438 22.257812 -21.003906 22.257812 -21.347656 C 22.257812 -21.347656 22.257812 -21.460938 22.257812 -21.460938 C 22.144531 -21.6875 22.144531 -21.917969 22.144531 -22.257812 C 22.144531 -22.375 22.144531 -22.601562 22.03125 -22.828125 C 22.03125 -23.171875 22.03125 -23.515625 22.03125 -23.855469 C 22.03125 -23.855469 22.03125 -23.855469 22.03125 -23.972656 C 21.917969 -24.3125 21.917969 -24.65625 21.800781 -25.113281 C 21.800781 -25.339844 21.800781 -25.457031 21.800781 -25.683594 C 21.800781 -26.027344 21.6875 -26.367188 21.6875 -26.710938 C 21.6875 -27.167969 21.6875 -27.625 21.6875 -28.082031 C 21.574219 -28.421875 21.574219 -28.652344 21.574219 -28.992188 C 21.574219 -29.335938 21.574219 -29.679688 21.460938 -30.019531 C 21.460938 -30.363281 21.460938 -30.59375 21.460938 -30.933594 C 21.347656 -31.277344 21.347656 -31.621094 21.347656 -31.960938 C 21.347656 -32.304688 21.347656 -32.761719 21.347656 -33.21875 C 21.230469 -33.675781 21.230469 -34.015625 21.230469 -34.472656 C 21.230469 -34.816406 21.230469 -35.273438 21.117188 -35.613281 C 21.117188 -36.183594 21.117188 -36.640625 21.117188 -37.097656 C 21.003906 -37.328125 21.117188 -37.554688 21.003906 -37.898438 C 21.003906 -38.238281 21.003906 -38.695312 21.003906 -39.152344 C 20.890625 -39.496094 20.890625 -39.839844 20.890625 -40.179688 C 20.890625 -40.179688 20.890625 -40.179688 20.890625 -40.292969 C 20.890625 -40.636719 20.773438 -40.980469 20.773438 -41.320312 C 20.773438 -41.777344 20.773438 -42.121094 20.773438 -42.578125 C 20.660156 -43.035156 20.773438 -43.605469 20.660156 -44.175781 C 20.660156 -44.402344 20.660156 -44.746094 20.660156 -45.089844 C 20.660156 -45.203125 20.546875 -45.429688 20.546875 -45.546875 C 20.546875 -45.886719 20.546875 -46.117188 20.546875 -46.34375 C 20.433594 -46.914062 20.433594 -47.371094 20.433594 -47.941406 C 20.433594 -47.941406 20.433594 -48.058594 20.433594 -48.058594 C 20.433594 -48.285156 20.320312 -48.511719 20.320312 -48.855469 C 20.320312 -48.855469 20.320312 -48.96875 20.320312 -49.085938 C 20.320312 -49.3125 20.320312 -49.539062 20.203125 -49.882812 C 20.203125 -49.996094 20.203125 -50.113281 20.203125 -50.226562 C 20.203125 -50.566406 20.203125 -50.910156 20.203125 -51.140625 C 20.089844 -51.140625 20.089844 -51.253906 20.089844 -51.253906 C 20.089844 -51.59375 20.089844 -51.824219 20.089844 -52.167969 C 19.976562 -52.394531 19.976562 -52.738281 19.976562 -52.964844 C 19.976562 -53.195312 19.976562 -53.535156 19.976562 -53.765625 C 19.863281 -54.105469 19.863281 -54.449219 19.863281 -54.675781 C 19.863281 -54.792969 19.863281 -54.792969 19.863281 -54.792969 C 19.863281 -55.132812 19.746094 -55.476562 19.746094 -55.820312 C 19.746094 -56.277344 19.746094 -56.730469 19.746094 -57.074219 C 19.632812 -57.304688 19.746094 -57.644531 19.632812 -57.875 C 19.632812 -58.101562 19.632812 -58.445312 19.632812 -58.671875 C 19.632812 -58.785156 19.632812 -58.785156 19.632812 -58.785156 C 19.519531 -59.128906 19.519531 -59.359375 19.519531 -59.699219 C 19.519531 -60.15625 19.519531 -60.613281 19.519531 -61.070312 C 19.519531 -61.183594 19.519531 -61.183594 19.519531 -61.183594 C 19.40625 -61.527344 19.40625 -61.867188 19.40625 -62.210938 C 19.292969 -62.554688 19.292969 -62.894531 19.292969 -63.238281 C 19.292969 -63.351562 19.292969 -63.351562 19.292969 -63.351562 C 19.292969 -63.695312 19.292969 -64.039062 19.292969 -64.265625 C 19.175781 -64.609375 19.175781 -64.949219 19.0625 -65.292969 C 19.0625 -65.636719 19.0625 -65.976562 18.949219 -66.320312 C 18.949219 -66.550781 18.949219 -66.664062 18.949219 -66.890625 C 18.949219 -67.234375 18.835938 -67.578125 18.835938 -67.917969 C 18.71875 -68.261719 18.71875 -68.605469 18.71875 -68.945312 C 18.605469 -69.289062 18.605469 -69.746094 18.605469 -70.085938 C 18.492188 -70.203125 18.492188 -70.316406 18.492188 -70.429688 C 18.492188 -70.660156 18.492188 -70.886719 18.492188 -71.113281 C 18.378906 -71.457031 18.378906 -71.6875 18.378906 -72.027344 C 18.378906 -72.257812 18.378906 -72.484375 18.265625 -72.828125 C 18.265625 -73.285156 18.265625 -73.742188 18.265625 -74.195312 C 18.265625 -74.652344 18.265625 -74.996094 18.265625 -75.453125 C 18.148438 -75.910156 18.148438 -76.25 18.148438 -76.707031 C 18.148438 -77.050781 18.148438 -77.277344 18.148438 -77.621094 C 18.035156 -77.964844 18.035156 -78.421875 18.035156 -78.878906 C 18.035156 -79.21875 17.921875 -79.5625 17.921875 -79.90625 C 17.691406 -79.90625 17.578125 -79.90625 17.464844 -79.90625 C 17.351562 -79.90625 17.238281 -79.90625 17.121094 -79.90625 C 15.980469 -79.90625 14.839844 -79.90625 13.699219 -79.90625 C 13.699219 -79.90625 13.582031 -79.90625 13.46875 -79.90625 C 13.355469 -80.019531 13.242188 -80.019531 13.128906 -80.019531 C 12.441406 -80.019531 11.644531 -80.019531 10.957031 -79.90625 C 10.046875 -79.90625 9.132812 -79.90625 8.21875 -79.90625 C 8.105469 -79.90625 7.992188 -79.90625 7.992188 -79.90625 C 7.992188 -79.90625 7.875 -79.90625 7.875 -79.90625 C 7.875 -79.449219 7.875 -78.992188 7.761719 -78.535156 C 7.648438 -78.078125 7.648438 -77.621094 7.648438 -77.164062 C 7.648438 -77.050781 7.648438 -77.050781 7.648438 -77.050781 C 7.535156 -76.59375 7.417969 -76.136719 7.417969 -75.566406 C 7.417969 -75.339844 7.417969 -74.996094 7.304688 -74.652344 C 7.304688 -74.425781 7.304688 -74.195312 7.304688 -73.96875 C 7.304688 -73.625 7.191406 -73.285156 7.191406 -72.941406 C 7.191406 -72.484375 7.191406 -72.140625 7.191406 -71.800781 C 7.191406 -71.6875 7.191406 -71.6875 7.191406 -71.6875 C 7.078125 -71.34375 7.078125 -71.113281 7.078125 -70.886719 C 7.078125 -70.773438 7.078125 -70.773438 7.078125 -70.660156 C 6.964844 -70.316406 6.964844 -69.972656 6.964844 -69.515625 C 6.964844 -69.402344 6.964844 -69.175781 6.964844 -69.058594 C 6.964844 -68.832031 6.847656 -68.605469 6.847656 -68.488281 C 6.847656 -68.03125 6.847656 -67.691406 6.734375 -67.234375 C 6.734375 -66.777344 6.734375 -66.320312 6.734375 -65.75 C 6.734375 -65.292969 6.734375 -64.949219 6.621094 -64.496094 C 6.621094 -64.152344 6.621094 -63.921875 6.621094 -63.695312 C 6.507812 -63.238281 6.507812 -62.667969 6.507812 -62.210938 C 6.507812 -61.753906 6.507812 -61.296875 6.507812 -60.839844 C 6.390625 -60.386719 6.390625 -60.042969 6.390625 -59.585938 C 6.390625 -59.585938 6.390625 -59.585938 6.390625 -59.472656 C 6.390625 -59.128906 6.277344 -58.785156 6.277344 -58.332031 C 6.277344 -58.101562 6.277344 -57.875 6.164062 -57.644531 C 6.164062 -57.1875 6.164062 -56.847656 6.050781 -56.390625 C 6.050781 -56.277344 6.050781 -56.160156 6.050781 -56.046875 C 6.050781 -55.820312 6.050781 -55.589844 5.9375 -55.363281 C 5.9375 -55.019531 5.9375 -54.675781 5.9375 -54.335938 C 5.9375 -54.222656 5.9375 -54.222656 5.820312 -54.222656 C 5.820312 -53.992188 5.820312 -53.765625 5.820312 -53.535156 C 5.820312 -53.195312 5.820312 -52.851562 5.707031 -52.507812 C 5.707031 -52.507812 5.707031 -52.507812 5.707031 -52.394531 C 5.707031 -52.167969 5.707031 -51.9375 5.707031 -51.710938 C 5.59375 -51.367188 5.59375 -51.140625 5.59375 -50.796875 C 5.59375 -50.453125 5.59375 -50.113281 5.59375 -49.65625 C 5.59375 -49.425781 5.59375 -49.199219 5.480469 -48.96875 C 5.480469 -48.628906 5.480469 -48.398438 5.480469 -48.058594 C 5.480469 -47.828125 5.480469 -47.601562 5.480469 -47.371094 C 5.363281 -46.914062 5.363281 -46.457031 5.363281 -46.117188 C 5.363281 -45.773438 5.363281 -45.546875 5.363281 -45.316406 C 5.363281 -44.976562 5.25 -44.632812 5.25 -44.289062 C 5.25 -43.949219 5.25 -43.605469 5.25 -43.261719 C 5.25 -43.035156 5.136719 -42.804688 5.136719 -42.578125 C 5.136719 -42.347656 5.136719 -42.007812 5.136719 -41.777344 C 5.023438 -41.207031 5.136719 -40.75 5.023438 -40.179688 C 5.023438 -39.609375 5.023438 -39.152344 4.910156 -38.582031 C 4.910156 -38.238281 4.910156 -37.898438 4.910156 -37.441406 C 4.910156 -37.210938 4.792969 -36.984375 4.792969 -36.757812 C 4.792969 -36.300781 4.679688 -35.957031 4.679688 -35.5 C 4.679688 -35.15625 4.679688 -34.929688 4.679688 -34.585938 C 4.679688 -34.472656 4.679688 -34.472656 4.679688 -34.472656 C 4.566406 -34.128906 4.566406 -33.789062 4.566406 -33.445312 C 4.566406 -32.988281 4.453125 -32.417969 4.453125 -31.847656 C 4.453125 -31.503906 4.453125 -31.164062 4.453125 -30.820312 C 4.335938 -30.476562 4.335938 -30.136719 4.335938 -29.792969 C 4.335938 -29.222656 4.335938 -28.539062 4.335938 -27.964844 C 4.335938 -27.394531 4.222656 -26.824219 4.222656 -26.140625 C 4.222656 -25.796875 4.222656 -25.457031 4.109375 -25.113281 C 4.109375 -24.542969 4.109375 -23.972656 4.109375 -23.402344 C 4.109375 -23.402344 4.109375 -23.285156 4.109375 -23.285156 C 4.109375 -22.945312 3.996094 -22.714844 3.996094 -22.375 C 3.996094 -22.144531 3.996094 -21.917969 3.996094 -21.6875 C 3.882812 -21.347656 3.882812 -21.003906 3.882812 -20.660156 C 3.882812 -20.660156 3.882812 -20.546875 3.882812 -20.546875 C 3.882812 -20.320312 3.765625 -19.976562 3.765625 -19.746094 C 3.765625 -19.40625 3.765625 -18.949219 3.765625 -18.492188 C 3.652344 -18.148438 3.765625 -17.808594 3.652344 -17.464844 C 3.652344 -17.121094 3.652344 -16.664062 3.539062 -16.210938 C 3.539062 -15.867188 3.539062 -15.523438 3.425781 -15.066406 C 3.425781 -14.609375 3.425781 -14.269531 3.425781 -13.8125 C 3.425781 -13.46875 3.425781 -13.128906 3.425781 -12.785156 C 3.308594 -12.554688 3.308594 -12.214844 3.308594 -11.871094 C 3.195312 -11.527344 3.195312 -11.1875 3.195312 -10.730469 C 3.195312 -10.617188 3.195312 -10.617188 3.082031 -10.5 C 3.082031 -10.160156 3.082031 -9.703125 3.082031 -9.359375 C 3.082031 -9.132812 2.96875 -8.902344 2.96875 -8.789062 C 2.96875 -8.5625 2.96875 -8.332031 2.855469 -8.105469 C 2.855469 -7.992188 2.855469 -7.761719 2.855469 -7.648438 C 2.855469 -7.417969 2.738281 -7.191406 2.738281 -6.964844 C 2.738281 -6.507812 2.738281 -6.050781 2.738281 -5.59375 C 2.738281 -5.480469 2.738281 -5.480469 2.738281 -5.480469 C 2.625 -5.023438 2.625 -4.679688 2.625 -4.335938 C 2.625 -4.109375 2.625 -3.882812 2.625 -3.652344 C 2.625 -3.425781 2.511719 -3.082031 2.511719 -2.855469 C 2.511719 -2.511719 2.511719 -2.167969 2.398438 -1.828125 C 2.398438 -1.828125 2.398438 -1.828125 2.398438 -1.710938 C 2.398438 -1.484375 2.398438 -1.253906 2.398438 -0.914062 C 2.398438 -0.914062 2.398438 -0.800781 2.28125 -0.683594 C 2.28125 -0.457031 2.28125 -0.226562 2.28125 0 C 2.398438 0 2.511719 0 2.625 0 C 3.652344 0 4.679688 -0.113281 5.820312 0 C 6.164062 0.113281 6.621094 0.113281 7.078125 0.113281 C 7.304688 0.113281 7.535156 0.113281 7.761719 0.113281 C 7.761719 0.113281 7.875 0.113281 7.875 0.113281 C 7.992188 -0.113281 7.992188 -0.34375 7.992188 -0.570312 C 7.992188 -0.683594 7.992188 -0.914062 8.105469 -1.027344 C 8.105469 -1.140625 8.105469 -1.371094 8.105469 -1.597656 C 8.105469 -1.710938 8.21875 -1.941406 8.21875 -2.167969 C 8.21875 -2.398438 8.21875 -2.511719 8.21875 -2.738281 C 8.332031 -3.082031 8.332031 -3.425781 8.332031 -3.765625 C 8.332031 -4.109375 8.332031 -4.335938 8.445312 -4.679688 C 8.445312 -5.023438 8.445312 -5.480469 8.445312 -5.820312 C 8.5625 -6.164062 8.5625 -6.390625 8.5625 -6.734375 C 8.5625 -7.191406 8.5625 -7.535156 8.675781 -7.992188 C 8.675781 -8.332031 8.675781 -8.675781 8.789062 -9.019531 C 8.789062 -9.246094 8.789062 -9.472656 8.789062 -9.589844 C 8.789062 -9.929688 8.902344 -10.273438 8.902344 -10.5 C 8.902344 -10.617188 8.902344 -10.730469 8.902344 -10.84375 C 8.902344 -11.1875 8.902344 -11.644531 9.019531 -12.101562 C 9.019531 -12.671875 9.019531 -13.355469 9.019531 -13.925781 C 9.019531 -13.925781 9.019531 -14.039062 9.019531 -14.039062 C 9.019531 -14.382812 9.132812 -14.726562 9.132812 -15.066406 C 9.132812 -15.296875 9.132812 -15.636719 9.132812 -15.980469 C 9.132812 -15.980469 9.132812 -15.980469 9.246094 -16.09375 C 9.246094 -16.324219 9.246094 -16.550781 9.246094 -16.78125 C 9.246094 -17.007812 9.246094 -17.238281 9.246094 -17.464844 C 9.359375 -17.808594 9.359375 -18.148438 9.359375 -18.492188 C 9.359375 -18.71875 9.359375 -19.0625 9.472656 -19.40625 C 9.472656 -19.632812 9.472656 -19.976562 9.472656 -20.320312 C 9.472656 -20.773438 9.589844 -21.230469 9.589844 -21.800781 C 9.589844 -21.917969 9.589844 -22.144531 9.703125 -22.375 C 9.703125 -22.601562 9.703125 -22.714844 9.703125 -22.945312 C 9.703125 -23.402344 9.816406 -23.972656 9.816406 -24.429688 C 9.929688 -24.769531 9.929688 -25.113281 9.929688 -25.457031 C 9.929688 -25.683594 9.929688 -25.910156 9.929688 -26.140625 C 9.929688 -26.253906 9.929688 -26.367188 9.929688 -26.597656 C 11.871094 -26.710938 13.8125 -26.597656 15.753906 -26.597656 Z M 15.183594 -33.789062 C 14.609375 -33.675781 14.15625 -33.675781 13.699219 -33.558594 C 13.128906 -33.558594 12.554688 -33.558594 12.101562 -33.558594 C 11.984375 -33.558594 11.871094 -33.558594 11.757812 -33.558594 C 11.527344 -33.445312 11.1875 -33.445312 10.84375 -33.445312 C 10.617188 -33.445312 10.5 -33.445312 10.273438 -33.445312 C 10.160156 -33.558594 10.273438 -33.675781 10.273438 -33.789062 C 10.273438 -33.902344 10.273438 -34.015625 10.273438 -34.128906 C 10.273438 -34.472656 10.386719 -34.816406 10.386719 -35.15625 C 10.386719 -35.386719 10.386719 -35.613281 10.386719 -35.84375 C 10.5 -36.070312 10.5 -36.414062 10.5 -36.757812 C 10.5 -37.097656 10.617188 -37.441406 10.617188 -37.785156 C 10.617188 -38.125 10.617188 -38.46875 10.617188 -38.8125 C 10.730469 -39.265625 10.730469 -39.722656 10.730469 -40.179688 C 10.730469 -40.523438 10.730469 -40.867188 10.84375 -41.207031 C 10.84375 -41.664062 10.84375 -42.007812 10.84375 -42.464844 C 10.84375 -42.804688 10.84375 -43.148438 10.957031 -43.492188 C 10.957031 -43.605469 10.957031 -43.949219 10.957031 -44.0625 C 11.074219 -44.519531 11.074219 -44.859375 11.074219 -45.203125 C 11.074219 -45.660156 11.1875 -46.117188 11.1875 -46.574219 C 11.1875 -46.800781 11.300781 -47.03125 11.300781 -47.257812 C 11.300781 -47.371094 11.300781 -47.601562 11.300781 -47.714844 C 11.414062 -48.058594 11.414062 -48.285156 11.414062 -48.511719 C 11.414062 -48.855469 11.414062 -49.085938 11.527344 -49.3125 C 11.527344 -49.3125 11.527344 -49.425781 11.527344 -49.425781 C 11.527344 -49.769531 11.527344 -50.113281 11.527344 -50.453125 C 11.527344 -50.910156 11.644531 -51.253906 11.644531 -51.59375 C 11.644531 -51.9375 11.644531 -52.167969 11.644531 -52.507812 C 11.757812 -52.851562 11.757812 -53.195312 11.757812 -53.535156 C 11.757812 -53.648438 11.871094 -53.878906 11.871094 -54.105469 C 11.871094 -54.5625 11.871094 -54.90625 11.871094 -55.25 C 11.984375 -55.589844 11.984375 -55.820312 11.984375 -55.933594 C 11.984375 -56.277344 11.984375 -56.390625 12.101562 -56.617188 C 12.101562 -56.847656 12.101562 -57.074219 12.101562 -57.1875 C 12.101562 -57.644531 12.214844 -57.988281 12.214844 -58.445312 C 12.214844 -58.671875 12.328125 -58.902344 12.328125 -59.128906 C 12.328125 -59.242188 12.328125 -59.472656 12.328125 -59.699219 C 12.441406 -60.042969 12.441406 -60.386719 12.441406 -60.726562 C 12.554688 -60.957031 12.554688 -61.183594 12.554688 -61.296875 C 12.554688 -61.640625 12.554688 -61.867188 12.554688 -62.097656 C 12.671875 -62.441406 12.671875 -62.667969 12.671875 -62.894531 C 12.671875 -62.894531 12.671875 -63.011719 12.671875 -63.011719 C 12.671875 -63.351562 12.671875 -63.695312 12.785156 -64.039062 C 12.785156 -64.496094 12.785156 -64.835938 12.898438 -65.292969 C 12.898438 -65.292969 12.898438 -65.40625 12.898438 -65.523438 C 12.898438 -65.976562 12.898438 -66.433594 12.898438 -67.003906 C 13.011719 -66.777344 13.011719 -66.550781 13.011719 -66.320312 C 13.011719 -66.09375 13.011719 -65.863281 13.128906 -65.636719 C 13.128906 -65.523438 13.128906 -65.292969 13.128906 -65.066406 C 13.128906 -64.722656 13.128906 -64.378906 13.242188 -64.039062 C 13.242188 -63.695312 13.242188 -63.46875 13.242188 -63.238281 C 13.242188 -63.125 13.242188 -63.125 13.242188 -63.125 C 13.355469 -62.78125 13.355469 -62.554688 13.355469 -62.210938 C 13.355469 -61.867188 13.355469 -61.414062 13.46875 -60.957031 C 13.46875 -60.613281 13.46875 -60.269531 13.46875 -60.042969 C 13.46875 -59.585938 13.46875 -59.242188 13.582031 -58.902344 C 13.582031 -58.671875 13.582031 -58.332031 13.582031 -58.101562 C 13.582031 -58.101562 13.582031 -58.101562 13.582031 -57.988281 C 13.699219 -57.644531 13.699219 -57.304688 13.699219 -56.960938 C 13.699219 -56.617188 13.699219 -56.277344 13.8125 -56.046875 C 13.8125 -55.703125 13.8125 -55.476562 13.8125 -55.25 C 13.8125 -54.90625 13.925781 -54.5625 13.925781 -54.222656 C 13.925781 -54.222656 13.925781 -54.222656 13.925781 -54.105469 C 13.925781 -53.765625 13.925781 -53.421875 13.925781 -52.964844 C 14.039062 -52.738281 14.039062 -52.507812 14.039062 -52.28125 C 14.039062 -52.050781 14.039062 -51.824219 14.15625 -51.59375 C 14.15625 -51.140625 14.15625 -50.683594 14.15625 -50.339844 C 14.269531 -49.996094 14.269531 -49.769531 14.269531 -49.539062 C 14.269531 -49.199219 14.269531 -48.96875 14.382812 -48.628906 C 14.382812 -48.628906 14.382812 -48.511719 14.382812 -48.398438 C 14.382812 -48.058594 14.382812 -47.714844 14.382812 -47.371094 C 14.496094 -46.6875 14.496094 -46.117188 14.496094 -45.546875 C 14.496094 -45.203125 14.609375 -44.976562 14.609375 -44.632812 C 14.609375 -44.519531 14.609375 -44.402344 14.609375 -44.289062 C 14.609375 -43.71875 14.609375 -43.261719 14.726562 -42.804688 C 14.726562 -42.347656 14.726562 -41.894531 14.726562 -41.4375 C 14.726562 -41.09375 14.839844 -40.636719 14.839844 -40.292969 C 14.839844 -40.292969 14.839844 -40.292969 14.839844 -40.179688 C 14.839844 -39.722656 14.839844 -39.152344 14.839844 -38.582031 C 14.839844 -38.125 14.953125 -37.554688 14.953125 -37.097656 C 14.953125 -37.097656 14.953125 -36.984375 14.953125 -36.984375 C 14.953125 -36.414062 14.953125 -35.957031 15.066406 -35.5 C 15.066406 -34.929688 15.183594 -34.472656 15.183594 -33.902344 C 15.183594 -33.902344 15.183594 -33.789062 15.183594 -33.789062 Z M 15.183594 -33.789062 "/></g></g></g><g clip-path="url(#00acac69aa)"><path fill="#ffffff" d="M 2.773438 70.292969 C 2.820312 70.074219 2.863281 69.859375 2.921875 69.648438 L 3.109375 69.023438 C 3.210938 68.613281 3.394531 68.226562 3.523438 67.847656 C 3.855469 67.097656 4.207031 66.398438 4.632812 65.746094 C 5.074219 65.109375 5.53125 64.496094 6.070312 63.953125 C 7.140625 62.867188 8.398438 61.964844 9.890625 61.304688 L 10.171875 61.171875 L 10.460938 61.0625 C 10.65625 60.992188 10.851562 60.910156 11.054688 60.835938 C 11.457031 60.726562 11.875 60.5625 12.3125 60.464844 C 12.75 60.355469 13.203125 60.269531 13.675781 60.191406 C 13.679688 60.191406 13.6875 60.1875 13.691406 60.1875 C 14.25 60.101562 14.398438 59.351562 13.902344 59.082031 C 13.429688 58.828125 12.925781 58.625 12.40625 58.46875 C 11.886719 58.3125 11.351562 58.246094 10.804688 58.171875 C 10.527344 58.140625 10.253906 58.152344 9.976562 58.148438 L 9.558594 58.148438 C 9.417969 58.152344 9.28125 58.171875 9.144531 58.1875 C 6.910156 58.390625 4.734375 59.480469 3.140625 61.125 C 2.335938 61.941406 1.703125 62.914062 1.21875 63.941406 C 0.746094 64.980469 0.480469 66.09375 0.386719 67.203125 C 0.375 67.480469 0.382812 67.761719 0.382812 68.039062 C 0.386719 68.175781 0.382812 68.3125 0.394531 68.449219 C 0.40625 68.585938 0.429688 68.722656 0.445312 68.859375 C 0.488281 69.132812 0.511719 69.402344 0.570312 69.667969 C 0.632812 69.929688 0.699219 70.191406 0.785156 70.449219 C 0.921875 70.859375 1.089844 71.261719 1.289062 71.644531 C 1.597656 72.226562 2.484375 72.082031 2.574219 71.429688 C 2.625 71.035156 2.691406 70.660156 2.773438 70.292969 Z M 147.414062 71.429688 C 147.503906 72.082031 148.386719 72.226562 148.695312 71.644531 C 148.894531 71.261719 149.0625 70.859375 149.203125 70.449219 C 149.285156 70.191406 149.351562 69.929688 149.414062 69.667969 C 149.472656 69.402344 149.496094 69.132812 149.539062 68.859375 C 149.554688 68.722656 149.578125 68.585938 149.589844 68.449219 C 149.601562 68.3125 149.597656 68.175781 149.601562 68.039062 C 149.601562 67.761719 149.609375 67.480469 149.597656 67.203125 C 149.503906 66.09375 149.234375 64.980469 148.765625 63.941406 C 148.28125 62.914062 147.648438 61.941406 146.84375 61.125 C 145.25 59.480469 143.074219 58.390625 140.839844 58.1875 C 140.703125 58.171875 140.566406 58.152344 140.425781 58.148438 L 140.007812 58.148438 C 139.730469 58.152344 139.457031 58.140625 139.179688 58.171875 C 138.632812 58.246094 138.097656 58.3125 137.578125 58.46875 C 137.054688 58.625 136.550781 58.828125 136.082031 59.082031 C 135.585938 59.351562 135.734375 60.101562 136.292969 60.1875 C 136.296875 60.1875 136.304688 60.191406 136.308594 60.191406 C 136.78125 60.269531 137.234375 60.355469 137.671875 60.464844 C 138.105469 60.5625 138.527344 60.726562 138.929688 60.835938 C 139.132812 60.910156 139.328125 60.992188 139.523438 61.0625 L 139.8125 61.171875 L 140.09375 61.304688 C 141.585938 61.964844 142.839844 62.867188 143.914062 63.953125 C 144.453125 64.496094 144.910156 65.109375 145.351562 65.746094 C 145.777344 66.398438 146.128906 67.097656 146.460938 67.847656 C 146.589844 68.226562 146.773438 68.613281 146.875 69.023438 L 147.0625 69.648438 C 147.121094 69.859375 147.164062 70.074219 147.210938 70.292969 C 147.292969 70.660156 147.355469 71.035156 147.414062 71.429688 Z M 74.441406 96.910156 C 62.609375 96.910156 50.851562 94.492188 39.503906 89.71875 C 28.519531 85.105469 17.890625 78.277344 7.90625 69.425781 C 7.152344 68.757812 7.082031 67.601562 7.753906 66.847656 C 8.425781 66.09375 9.582031 66.027344 10.335938 66.695312 C 29.9375 84.074219 52.105469 93.257812 74.441406 93.257812 C 96.972656 93.257812 119.308594 83.921875 139.035156 66.261719 C 139.789062 65.589844 140.945312 65.652344 141.621094 66.402344 C 142.292969 67.152344 142.230469 68.308594 141.480469 68.980469 C 131.4375 77.972656 120.734375 84.910156 109.664062 89.601562 C 98.226562 94.449219 86.375 96.910156 74.441406 96.910156 " fill-opacity="1" fill-rule="nonzero"/></g><g clip-path="url(#a4118f916f)"><path fill="#000000" d="M 28.359375 15.683594 L 121.617188 15.683594 C 122.058594 15.683594 122.492188 15.726562 122.921875 15.808594 C 123.351562 15.894531 123.769531 16.023438 124.175781 16.1875 C 124.582031 16.355469 124.964844 16.5625 125.332031 16.804688 C 125.695312 17.046875 126.03125 17.324219 126.34375 17.632812 C 126.652344 17.941406 126.929688 18.277344 127.171875 18.640625 C 127.417969 19.003906 127.625 19.386719 127.792969 19.789062 C 127.957031 20.195312 128.085938 20.609375 128.171875 21.039062 C 128.257812 21.46875 128.300781 21.898438 128.300781 22.335938 L 128.300781 25.445312 C 128.300781 25.882812 128.257812 26.316406 128.171875 26.742188 C 128.085938 27.171875 127.957031 27.589844 127.792969 27.992188 C 127.625 28.394531 127.417969 28.777344 127.171875 29.140625 C 126.929688 29.503906 126.652344 29.839844 126.34375 30.152344 C 126.03125 30.460938 125.695312 30.734375 125.332031 30.976562 C 124.964844 31.222656 124.582031 31.425781 124.175781 31.59375 C 123.769531 31.761719 123.351562 31.886719 122.921875 31.972656 C 122.492188 32.058594 122.058594 32.097656 121.617188 32.097656 L 28.359375 32.097656 C 27.917969 32.097656 27.484375 32.058594 27.054688 31.972656 C 26.625 31.886719 26.207031 31.761719 25.800781 31.59375 C 25.394531 31.425781 25.011719 31.222656 24.644531 30.976562 C 24.28125 30.734375 23.945312 30.460938 23.632812 30.152344 C 23.324219 29.839844 23.046875 29.503906 22.800781 29.140625 C 22.558594 28.777344 22.351562 28.394531 22.183594 27.992188 C 22.015625 27.589844 21.890625 27.171875 21.804688 26.742188 C 21.71875 26.316406 21.675781 25.882812 21.675781 25.445312 L 21.675781 22.335938 C 21.675781 21.898438 21.71875 21.46875 21.804688 21.039062 C 21.890625 20.609375 22.015625 20.195312 22.183594 19.789062 C 22.351562 19.386719 22.558594 19.003906 22.800781 18.640625 C 23.046875 18.277344 23.324219 17.941406 23.632812 17.632812 C 23.945312 17.324219 24.28125 17.046875 24.644531 16.804688 C 25.011719 16.5625 25.394531 16.355469 25.800781 16.1875 C 26.207031 16.023438 26.625 15.894531 27.054688 15.808594 C 27.484375 15.726562 27.917969 15.683594 28.359375 15.683594 Z M 28.359375 15.683594 " fill-opacity="1" fill-rule="nonzero"/></g><g fill="#ffffff" fill-opacity="1"><g transform="translate(26.096303, 27.930237)"><g><path d="M 8.109375 -8.125 L 5.125 0 L 3.140625 0 L 0.15625 -8.125 L 1.90625 -8.125 L 4.140625 -1.671875 L 6.375 -8.125 Z M 8.109375 -8.125 "/></g></g></g><g fill="#ffffff" fill-opacity="1"><g transform="translate(41.59411, 27.930237)"><g><path d="M 4.578125 0.078125 C 3.816406 0.078125 3.117188 -0.0976562 2.484375 -0.453125 C 1.847656 -0.804688 1.34375 -1.300781 0.96875 -1.9375 C 0.59375 -2.570312 0.40625 -3.285156 0.40625 -4.078125 C 0.40625 -4.867188 0.59375 -5.582031 0.96875 -6.21875 C 1.34375 -6.851562 1.847656 -7.347656 2.484375 -7.703125 C 3.117188 -8.054688 3.816406 -8.234375 4.578125 -8.234375 C 5.347656 -8.234375 6.046875 -8.054688 6.671875 -7.703125 C 7.304688 -7.347656 7.804688 -6.851562 8.171875 -6.21875 C 8.546875 -5.582031 8.734375 -4.867188 8.734375 -4.078125 C 8.734375 -3.285156 8.546875 -2.570312 8.171875 -1.9375 C 7.804688 -1.300781 7.304688 -0.804688 6.671875 -0.453125 C 6.035156 -0.0976562 5.335938 0.078125 4.578125 0.078125 Z M 4.578125 -1.375 C 5.066406 -1.375 5.492188 -1.484375 5.859375 -1.703125 C 6.234375 -1.921875 6.523438 -2.234375 6.734375 -2.640625 C 6.941406 -3.054688 7.046875 -3.535156 7.046875 -4.078125 C 7.046875 -4.628906 6.941406 -5.109375 6.734375 -5.515625 C 6.523438 -5.921875 6.234375 -6.234375 5.859375 -6.453125 C 5.492188 -6.671875 5.066406 -6.78125 4.578125 -6.78125 C 4.085938 -6.78125 3.65625 -6.671875 3.28125 -6.453125 C 2.90625 -6.234375 2.609375 -5.921875 2.390625 -5.515625 C 2.179688 -5.109375 2.078125 -4.628906 2.078125 -4.078125 C 2.078125 -3.535156 2.179688 -3.054688 2.390625 -2.640625 C 2.609375 -2.234375 2.90625 -1.921875 3.28125 -1.703125 C 3.65625 -1.484375 4.085938 -1.375 4.578125 -1.375 Z M 4.578125 -1.375 "/></g></g></g><g fill="#ffffff" fill-opacity="1"><g transform="translate(57.952867, 27.930237)"><g><path d="M 2.4375 -1.296875 L 5.109375 -1.296875 L 5.109375 0 L 0.796875 0 L 0.796875 -8.125 L 2.4375 -8.125 Z M 2.4375 -1.296875 "/></g></g></g><g fill="#ffffff" fill-opacity="1"><g transform="translate(70.51879, 27.930237)"><g><path d="M 2.40625 -8.125 L 2.40625 -3.09375 C 2.40625 -2.539062 2.546875 -2.117188 2.828125 -1.828125 C 3.117188 -1.535156 3.523438 -1.390625 4.046875 -1.390625 C 4.578125 -1.390625 4.984375 -1.535156 5.265625 -1.828125 C 5.554688 -2.117188 5.703125 -2.539062 5.703125 -3.09375 L 5.703125 -8.125 L 7.34375 -8.125 L 7.34375 -3.109375 C 7.34375 -2.421875 7.191406 -1.835938 6.890625 -1.359375 C 6.597656 -0.878906 6.203125 -0.519531 5.703125 -0.28125 C 5.203125 -0.0390625 4.644531 0.078125 4.03125 0.078125 C 3.425781 0.078125 2.875 -0.0390625 2.375 -0.28125 C 1.882812 -0.519531 1.492188 -0.878906 1.203125 -1.359375 C 0.921875 -1.835938 0.78125 -2.421875 0.78125 -3.109375 L 0.78125 -8.125 Z M 2.40625 -8.125 "/></g></g></g><g fill="#ffffff" fill-opacity="1"><g transform="translate(85.853711, 27.930237)"><g><path d="M 7.75 0 L 6.125 0 L 2.4375 -5.578125 L 2.4375 0 L 0.796875 0 L 0.796875 -8.140625 L 2.4375 -8.140625 L 6.125 -2.546875 L 6.125 -8.140625 L 7.75 -8.140625 Z M 7.75 0 "/></g></g></g><g fill="#ffffff" fill-opacity="1"><g transform="translate(101.630745, 27.930237)"><g><path d="M 6.328125 -8.125 L 6.328125 -6.8125 L 4.171875 -6.8125 L 4.171875 0 L 2.53125 0 L 2.53125 -6.8125 L 0.375 -6.8125 L 0.375 -8.125 Z M 6.328125 -8.125 "/></g></g></g><g fill="#ffffff" fill-opacity="1"><g transform="translate(115.569539, 27.930237)"><g><path d="M 5.78125 -1.546875 L 2.546875 -1.546875 L 2.015625 0 L 0.296875 0 L 3.21875 -8.140625 L 5.125 -8.140625 L 8.046875 0 L 6.328125 0 Z M 5.34375 -2.859375 L 4.171875 -6.25 L 2.984375 -2.859375 Z M 5.34375 -2.859375 "/></g></g></g></svg>