<svg xmlns="http://www.w3.org/2000/svg" viewBox="0 0 500 500"><g id="freepik--background-simple--inject-191"><g><path d="M480.75,211.01c-1.79-40.59-18.42-79.3-42.84-108.81-14.29-17.26-31.31-32.25-49.74-43.75-19.13-11.94-39.94-25.32-62.63-26.75-5.6-.35-11.32,.08-16.78,1.96-20.9,7.17,21.55,29.01,27.11,32.23-59.13-23.94-120.32-48.22-184.03-43.72-12.28,.87-24.99,2.99-35.59,10.39s-18.55,21.28-16.54,34.72c1.67,11.11,9.33,23.33,2.76,32.27-1.88,2.55-4.6,4.12-7.28,5.48-13.75,7.01-28.71,10.93-41.68,19.7-20.08,13.58-33.33,37.79-39.04,62.99-5.72,25.2-4.61,51.46-1.3,76.81,6.23,47.7,20.68,94.76,48.13,131.14,39.21,51.96,101.67,77.07,163.54,79.56,74.87,3.02,155.01-27.85,202.43-94.88,7.03-9.94,13.42-20.91,15.72-33.17,2.3-12.26-.24-26.07-8.68-33.8-2.28-2.08-5.19-4.28-5.05-7.63,.19-4.54,5.4-6.23,9.38-7.31,26.11-7.07,40.15-40.53,41.96-70.27,.35-5.74,.39-11.46,.14-17.15Z" style="fill:#6A6F4C;"></path><path d="M480.75,211.01c-1.79-40.59-18.42-79.3-42.84-108.81-14.29-17.26-31.31-32.25-49.74-43.75-19.13-11.94-39.94-25.32-62.63-26.75-5.6-.35-11.32,.08-16.78,1.96-20.9,7.17,21.55,29.01,27.11,32.23-59.13-23.94-120.32-48.22-184.03-43.72-12.28,.87-24.99,2.99-35.59,10.39s-18.55,21.28-16.54,34.72c1.67,11.11,9.33,23.33,2.76,32.27-1.88,2.55-4.6,4.12-7.28,5.48-13.75,7.01-28.71,10.93-41.68,19.7-20.08,13.58-33.33,37.79-39.04,62.99-5.72,25.2-4.61,51.46-1.3,76.81,6.23,47.7,20.68,94.76,48.13,131.14,39.21,51.96,101.67,77.07,163.54,79.56,74.87,3.02,155.01-27.85,202.43-94.88,7.03-9.94,13.42-20.91,15.72-33.17,2.3-12.26-.24-26.07-8.68-33.8-2.28-2.08-5.19-4.28-5.05-7.63,.19-4.54,5.4-6.23,9.38-7.31,26.11-7.07,40.15-40.53,41.96-70.27,.35-5.74,.39-11.46,.14-17.15Z" style="fill:#fff; opacity:.7;"></path></g></g><g id="freepik--Floor--inject-191"><line x1="4.75" y1="443.93" x2="493.01" y2="443.93" style="fill:none; stroke:#263238; stroke-miterlimit:10;"></line></g><g id="freepik--Clouds--inject-191"><path d="M179.13,64.92c2.89-1.7,5.33-5.1,8.1-7.27,7.06-5.52,15.7-8.81,24.72-8.62,20.69,.42,29.13,22.8,31.66,23.64,2.53,.84,8.02-8.02,17.31-6.33s10.98,9.29,13.93,11.4c2.96,2.11,10.98-3.8,16.04-2.11,5.07,1.69,4.22,7.18,9.29,7.6,5.07,.42,8.02-2.11,11.82-1.27,3.8,.84,6.33,4.64,6.33,4.64-58.69,0-117.39-.01-176.08,0-42.91,0-85.82,0-128.73,0,4.63-7.83,11.09-15.06,19.66-18.12,13.07-4.66,27.21,1.29,40.9,3.53,1.37,.22,2.85,.39,4.08-.25,1.65-.87,2.27-2.88,2.7-4.7,2.45-10.37,3.8-21.34,9.53-30.32,8.94-14.03,28.63-20.01,43.86-13.33,14.31,6.27,22.65,20.94,31.03,34.13,1.68,2.65,3.48,5.35,6.12,7.04,3.07,1.97,5.53,1.65,7.73,.35Z" style="fill:none; stroke:#263238; stroke-miterlimit:10;"></path><path d="M371.28,199.16c1.89-1.11,3.48-3.33,5.29-4.75,4.61-3.61,10.25-5.75,16.15-5.63,13.51,.28,19.02,14.89,20.68,15.44,1.65,.55,5.24-5.24,11.3-4.14,6.07,1.1,7.17,6.07,9.1,7.44s7.17-2.48,10.48-1.38c3.31,1.1,2.76,4.69,6.07,4.96,3.31,.28,5.24-1.38,7.72-.83,2.48,.55,4.14,3.03,4.14,3.03-38.33,0-76.67,0-115,0-28.02,0-56.05,0-84.07,0,3.03-5.11,7.24-9.84,12.84-11.84,8.53-3.05,17.77,.84,26.71,2.3,.89,.15,1.86,.26,2.66-.16,1.08-.57,1.48-1.88,1.77-3.07,1.6-6.77,2.48-13.94,6.22-19.8,5.84-9.16,18.7-13.07,28.65-8.71,9.35,4.1,14.79,13.67,20.27,22.29,1.1,1.73,2.27,3.49,4,4.6,2,1.28,3.61,1.08,5.05,.23Z" style="fill:none; stroke:#263238; stroke-miterlimit:10;"></path><path d="M80.69,422.4c1.31-.77,2.42-2.32,3.68-3.3,3.21-2.51,7.14-4,11.24-3.92,9.4,.19,13.24,10.36,14.39,10.74s3.64-3.65,7.87-2.88,4.99,4.22,6.33,5.18c1.34,.96,4.99-1.73,7.29-.96,2.3,.77,1.92,3.26,4.22,3.45,2.3,.19,3.64-.96,5.37-.58,1.73,.38,2.88,2.11,2.88,2.11-26.67,0-53.35,0-80.02,0-19.5,0-39,0-58.5,0,2.11-3.56,5.04-6.85,8.93-8.24,5.94-2.12,12.36,.59,18.59,1.6,.62,.1,1.3,.18,1.85-.11,.75-.4,1.03-1.31,1.23-2.13,1.11-4.71,1.73-9.7,4.33-13.78,4.06-6.38,13.01-9.09,19.93-6.06,6.5,2.85,10.29,9.52,14.1,15.51,.76,1.2,1.58,2.43,2.78,3.2,1.39,.89,2.51,.75,3.51,.16Z" style="fill:none; stroke:#263238; stroke-miterlimit:10;"></path><path d="M337.87,430.72c1.03-.6,1.89-1.81,2.87-2.58,2.51-1.96,5.58-3.13,8.78-3.06,7.35,.15,10.34,8.1,11.24,8.4,.9,.3,2.85-2.85,6.15-2.25,3.3,.6,3.9,3.3,4.95,4.05,1.05,.75,3.9-1.35,5.7-.75,1.8,.6,1.5,2.55,3.3,2.7,1.8,.15,2.85-.75,4.2-.45,1.35,.3,2.25,1.65,2.25,1.65-20.84,0-41.69,0-62.53,0-15.24,0-30.48,0-45.72,0,1.65-2.78,3.94-5.35,6.98-6.44,4.64-1.66,9.66,.46,14.52,1.25,.49,.08,1.01,.14,1.45-.09,.59-.31,.81-1.02,.96-1.67,.87-3.68,1.35-7.58,3.38-10.77,3.18-4.98,10.17-7.11,15.58-4.73,5.08,2.23,8.04,7.44,11.02,12.12,.6,.94,1.24,1.9,2.17,2.5,1.09,.7,1.96,.59,2.75,.13Z" style="fill:none; stroke:#263238; stroke-miterlimit:10;"></path><path d="M428.26,395.84c1.03-.6,1.89-1.81,2.87-2.58,2.51-1.96,5.58-3.13,8.78-3.06,7.35,.15,10.34,8.1,11.24,8.4,.9,.3,2.85-2.85,6.15-2.25,3.3,.6,3.9,3.3,4.95,4.05,1.05,.75,3.9-1.35,5.7-.75s1.5,2.55,3.3,2.7c1.8,.15,2.85-.75,4.2-.45,1.35,.3,2.25,1.65,2.25,1.65-20.84,0-41.69,0-62.53,0-15.24,0-30.48,0-45.72,0,1.65-2.78,3.94-5.35,6.98-6.44,4.64-1.66,9.66,.46,14.52,1.25,.49,.08,1.01,.14,1.45-.09,.59-.31,.81-1.02,.96-1.67,.87-3.68,1.35-7.58,3.38-10.77,3.18-4.98,10.17-7.11,15.58-4.73,5.08,2.23,8.04,7.44,11.02,12.12,.6,.94,1.24,1.9,2.17,2.5,1.09,.7,1.96,.59,2.75,.13Z" style="fill:none; stroke:#263238; stroke-miterlimit:10;"></path></g><g id="freepik--Characters--inject-191"><g><polygon points="296.1 245.14 298.22 235.5 320.44 242.2 321.03 247.49 296.1 245.14" style="fill:#fff; stroke:#263238; stroke-miterlimit:10;"></polygon><path d="M309.68,203.35s-6.49,.39-10.81,5.7c-4.32,5.31-3.34,15.13-3.34,15.13,0,0-1.18,1.38-1.57,4.13-.39,2.75-.39,6.29,.39,6.49,.79,.2,1.97,.98,1.97,.98,0,0,3.19,9.32,7.32,11.48,4.13,2.16,10.81,3.1,14.34,.94,3.54-2.16,7.23-10.85,7.23-10.85,0,0,2.95-.59,3.54-3.93,.59-3.34-.2-6.49-.2-6.49,0,0,3.34-8.84,0-15.33-3.34-6.49-11.4-7.67-18.87-8.25Z" style="fill:#fff; stroke:#263238; stroke-miterlimit:10;"></path><path d="M328.55,211.6c-3.34-6.49-11.4-7.67-18.87-8.25,0,0-6.49,.39-10.81,5.7-4.32,5.31-3.34,15.13-3.34,15.13,0,0,1.38,.59,1.38,1.38s-.59,6.29,0,5.9c.59-.39,1.57-5.5,1.57-5.5,0,0,1.38-5.9,3.54-8.25,2.16-2.36-2.95-4.72,1.18-6.49,4.13-1.77,11.4,4.32,14.15,3.73,2.75-.59,4.13-1.97,5.9-1.77,1.77,.2,4.32,4.13,4.32,7.08s-.98,4.52-.79,6.29c.2,1.77-1.18,7.08-.98,7.67,.2,.59,2.75-7.27,2.75-7.27,0,0,.15-.46,.37-1.16,.77-2.6,2.24-9.1-.37-14.17Z" style="fill:#263238; stroke:#263238; stroke-miterlimit:10;"></path><g><path d="M313.22,223.59s-6.88-3.14-9.63-2.16-3.34,4.52-2.16,7.86c1.18,3.34,5.9,3.14,8.65,1.97,2.75-1.18,4.72-4.13,3.14-7.67Z" style="fill:#6A6F4C; stroke:#263238; stroke-miterlimit:10;"></path><path d="M325.96,226.23s-6.45-2.24-8.42-1.65c-1.97,.59-3.41,4.7-1.01,7.75,3.14,3.98,7.49,3.25,8.87,1.48,1.38-1.77,3.31-6.99,.55-7.58Z" style="fill:#6A6F4C; stroke:#263238; stroke-miterlimit:10;"></path><line x1="317.54" y1="224.58" x2="313.22" y2="223.59" style="fill:none; stroke:#263238; stroke-miterlimit:10;"></line><line x1="303.59" y1="221.43" x2="297.1" y2="223.79" style="fill:none; stroke:#263238; stroke-miterlimit:10;"></line></g><path d="M315.62,233.27s-1.41,1.06-2.47,1.06-2.12-1.41-2.12-1.41" style="fill:none; stroke:#263238; stroke-miterlimit:10;"></path><path d="M318.33,237.73s-8.47,3.41-12.46-3.29" style="fill:#fff; stroke:#263238; stroke-miterlimit:10;"></path></g><g><g><path d="M243.22,156.87s30.44-44.54,31.24-46.46c.8-1.92,4.33-4.01,6.41-4.65s9.29,0,10.25-.32c.96-.32,4.81-2.72,5.29-1.28,.48,1.44-.48,2.24-1.44,2.72-.96,.48-5.93,1.6-5.93,1.6l10.41,2.56,5.13,.48s3.36-2.08,2.4-.64c-.96,1.44-4.17,3.69-7.53,4.33-3.36,.64-17.78-1.28-19.23-.32s-2.4,2.4-2.88,3.2c-.48,.8-9.29,20.99-14.1,28.04-4.81,7.05-10.57,17.78-10.57,17.78l-9.45-7.05Z" style="fill:#fff; stroke:#263238; stroke-miterlimit:10;"></path><path d="M280.07,111.2s4.49-1.44,5.45-1.28c.96,.16,8.33,2.56,8.33,2.56,0,0,5.61-4.65,4.81-3.04s-2.72,4.17-3.69,4.65c-.96,.48-2.88,.96-6.57,1.12-3.69,.16-8.01-1.6-8.01-1.6" style="fill:#fff; stroke:#263238; stroke-miterlimit:10;"></path></g><g><path d="M161.82,156.87s-30.44-44.54-31.24-46.46c-.8-1.92-4.33-4.01-6.41-4.65s-9.29,0-10.25-.32c-.96-.32-4.81-2.72-5.29-1.28-.48,1.44,.48,2.24,1.44,2.72,.96,.48,5.93,1.6,5.93,1.6l-10.41,2.56-5.13,.48s-3.36-2.08-2.4-.64c.96,1.44,4.17,3.69,7.53,4.33,3.36,.64,17.78-1.28,19.23-.32s2.4,2.4,2.88,3.2c.48,.8,9.29,20.99,14.1,28.04s10.57,17.78,10.57,17.78l9.45-7.05Z" style="fill:#fff; stroke:#263238; stroke-miterlimit:10;"></path><path d="M124.97,111.2s-4.49-1.44-5.45-1.28c-.96,.16-8.33,2.56-8.33,2.56,0,0-5.61-4.65-4.81-3.04s2.72,4.17,3.69,4.65c.96,.48,2.88,.96,6.57,1.12,3.69,.16,8.01-1.6,8.01-1.6" style="fill:#fff; stroke:#263238; stroke-miterlimit:10;"></path></g><path d="M180.09,176.57s-17.46-27.08-23.55-24.51c-6.09,2.56-9.13,15.38-8.33,16.82,.8,1.44,2.56,3.04,2.72,3.52,.16,.48,.64,5.45,2.08,6.89s14.26,15.54,14.26,15.54c0,0,.48,16.02,.8,21.79,.32,5.77,.16,15.86,.16,15.86,0,0-10.41,17.78-10.57,18.27-.16,.48,64.89-4.49,64.89-4.49v-20.51c0-1.12,8.17-24.51,8.17-24.51,0,0,14.74-17.3,15.54-18.75,.8-1.44,1.92-5.77,1.92-5.77,0,0,1.44-3.52,1.44-4.01s-12.18-7.37-12.66-7.37-3.69,1.76-4.97,3.52c-1.28,1.76-3.69,5.29-3.69,5.29l-4.97,2.08-13.3,5.77-23.39-1.76-6.57-3.69Z" style="fill:#263238; stroke:#263238; stroke-miterlimit:10;"></path><path d="M187.74,187.04s-.19,4.94-.57,6.09c-.38,1.14-2.28,4.94-3.61,10.27-1.33,5.32,2.85,1.14,3.61-.38s2.47-4.75,3.04-4.75,4.37,5.7,4.37,5.7c0,0,3.99-4.94,5.13-4.75s.19,5.7,2.66,8.37c2.47,2.66,2.85-1.33,2.66-3.04-.19-1.71,1.14-11.98,2.09-15.78" style="fill:none; stroke:#858585; stroke-miterlimit:10;"></path><path d="M189.83,184.38s.38,4.94,1.33,7.04c.95,2.09,3.8,8.94,3.8,8.94,0,0,7.04-10.46,8.37-13.69,1.33-3.23,3.2-11.21,3.2-11.21l-16.7,8.92Z" style="fill:#fff; stroke:#263238; stroke-miterlimit:10;"></path><path d="M194.99,145.81s-7.05-.8-10.57,3.2c-3.52,4.01-1.44,7.53-3.2,10.25-1.76,2.72-2.4,.16-5.29,.8-2.88,.64-6.57,5.45-4.49,9.61,2.08,4.17,4.01,2.72,4.01,2.72,0,0-4.17-2.56-.96-4.33,3.2-1.76,4.49,1.12,2.72,2.72-1.76,1.6-2.24,5.77,1.28,8.81,3.52,3.04,9.29,3.85,9.29,3.85,0,0,14.74-.64,15.7-2.24,.96-1.6,4.17-.64,3.2,1.44-.96,2.08-4.81,12.02-2.4,14.42,2.4,2.4,5.77,1.44,5.61,4.01-.16,2.56-3.04,7.05,2.08,9.61,5.13,2.56,7.21-.48,7.21-.48,0,0-4.97,1.12-5.93-3.04-.96-4.17,4.17-10.41,6.89-6.89s-1.6,4.65,1.44,8.81c3.04,4.17,12.02,.96,12.34,4.01,.32,3.04-1.92,5.13,0,6.57s6.25-1.44,6.25-1.44c0,0-5.29-.8-4.81-3.2,.48-2.4,2.08-4.81,.8-7.69-1.28-2.88-5.13-4.49-5.45-6.09-.32-1.6-2.24-10.9,2.72-12.66,4.97-1.76,7.37-7.53,2.4-12.02-4.97-4.49-7.05-.96-10.25-4.81-3.2-3.85,3.2-1.44,4.49-3.52s-.16-4.49-.16-4.49c0,0,.8,1.92-2.08,1.76-2.88-.16-4.17,.96-6.25-6.25-2.08-7.21-3.52-12.18-12.02-15.06-8.49-2.88-14.58,1.6-14.58,1.6Z" style="fill:#858585; stroke:#263238; stroke-miterlimit:10;"></path><g><path d="M190.82,150.78s-3.69,1.92-5.77,5.61c-2.08,3.69-1.92,6.73-1.92,7.69s-1.6,3.2-1.6,7.05,.8,11.38,2.24,13.46,5.13,1.12,8.01,.32,10.25-2.56,11.7-3.69c1.44-1.12,3.04-5.77,3.04-5.77,0,0,3.85-2.4,4.65-4.81,.8-2.4,.96-5.13-.8-4.97-1.76,.16-4.17,3.2-4.17,3.2,0,0,.48-1.76-.8-3.69s-4.81-2.88-8.49-8.65c-3.69-5.77-3.85-6.73-3.85-6.73l-2.24,.96Z" style="fill:#fff; stroke:#263238; stroke-miterlimit:10;"></path><path d="M184.09,161.35s1.12,.64,1.12,2.08-3.85,5.45-3.2,6.57c.64,1.12,3.2,1.6,4.17,1.28" style="fill:none; stroke:#263238; stroke-miterlimit:10;"></path><path d="M183.77,174.81s4.97,2.08,9.29-1.76c0,0-2.56,2.56-5.61,4.01-3.04,1.44-3.69-2.24-3.69-2.24Z" style="fill:none; stroke:#263238; stroke-miterlimit:10;"></path><path d="M189.06,159.91s3.36-2.72,5.77-.32" style="fill:none; stroke:#263238; stroke-miterlimit:10;"></path><path d="M190.82,162.63l-.48,2.08s2.08,.96,3.85-.16" style="fill:none; stroke:#263238; stroke-miterlimit:10;"></path></g><path d="M240.97,155.58s-4.81,6.41-6.09,8.97,2.4,8.81,6.57,10.9,9.13,2.24,9.61,1.28c.48-.96,.96-3.85,1.76-4.01s3.36-1.28,3.36-7.05-.48-3.85-4.49-5.93-8.81-8.17-10.73-4.17Z" style="fill:#858585; stroke:#263238; stroke-miterlimit:10;"></path><path d="M154.77,147.89s-8.01,5.61-10.9,9.29c-2.88,3.69-2.72,5.29-1.28,7.53,1.44,2.24,3.52,4.17,4.81,2.56,1.28-1.6,9.61-7.53,11.86-8.49,2.24-.96,5.13-.96,4.81-3.85-.32-2.88-4.65-5.45-5.61-7.05-.96-1.6-1.76-.8-3.69,0Z" style="fill:#858585; stroke:#263238; stroke-miterlimit:10;"></path></g><g><path d="M308.74,298.38c-18,0-32.65-13.45-32.65-29.99s14.65-29.99,32.65-29.99,32.65,13.45,32.65,29.99-14.65,29.99-32.65,29.99Zm0-55.97c-15.8,0-28.65,11.66-28.65,25.99s12.85,25.99,28.65,25.99,28.65-11.66,28.65-25.99-12.85-25.99-28.65-25.99Z" style="fill:#263238;"></path><g><path d="M356.58,252.37s-4.93-5.26-6.9-5.59c-1.97-.33-34.5-8.54-59.14-9.53-24.64-.99-39.1,4.93-37.78,5.59,1.31,.66,7.89-2.3,25.96-1.31,18.07,.99,30.55,2.96,33.84,2.3,3.29-.66,8.87,0,12.81,0s20.04,6.57,20.04,6.57l3.94,.66" style="fill:#858585; stroke:#263238; stroke-miterlimit:10;"></path><path d="M251.06,243.88s-5.57-4.57-7.57-4.64c-2-.07-35.31-3.99-59.87-1.77s-38.13,9.96-36.74,10.44c1.39,.48,7.52-3.3,25.57-4.67,18.05-1.37,30.68-1.03,33.85-2.11,3.17-1.08,8.8-1.15,12.7-1.66,3.91-.51,20.72,3.91,20.72,3.91l3.99,.14" style="fill:#858585; stroke:#263238; stroke-miterlimit:10;"></path></g><g><path d="M105.85,405.59h99.79s1.56,5.94,5.63,6.26c4.07,.31,5.32-3.44,5.32-3.44,0,0,1.56,2.82,5.01,2.82s4.38-3.13,4.38-3.13c0,0,.31,4.69,4.07,4.07,3.75-.63,3.75-5.01,3.75-5.01h8.45s2.5,3.13,5.94,2.19c3.44-.94,4.69-2.5,4.69-2.5h10.95s1.88,5.63,4.07,5.94c2.19,.31,4.38-3.75,4.38-3.75,0,0,1.88,3.75,5.63,2.82,3.75-.94,5.63-2.82,5.63-2.82,0,0,1.56,3.75,4.38,3.13,2.82-.63,4.38-5.32,4.38-5.32h106.36v-33.47H103.66l2.19,32.22Z" style="fill:#263238; stroke:#263238; stroke-miterlimit:10;"></path><path d="M81.51,358.57h13.3c7.43,0,13.47,6.03,13.47,13.47v62.03c0,5.44-4.42,9.86-9.86,9.86h-20.5c-5.44,0-9.86-4.42-9.86-9.86v-62.03c0-7.43,6.03-13.47,13.47-13.47Z" style="fill:#263238; stroke:#263238; stroke-miterlimit:10;"></path><path d="M405.12,358.57h13.3c7.43,0,13.47,6.03,13.47,13.47v62.03c0,5.44-4.42,9.86-9.86,9.86h-20.5c-5.44,0-9.86-4.42-9.86-9.86v-62.03c0-7.43,6.03-13.47,13.47-13.47Z" style="fill:#263238; stroke:#263238; stroke-miterlimit:10;"></path><g><path d="M120.14,236.62s-12.08,.32-15.58,3.18c-3.5,2.86-2.54,10.49-1.27,11.77s11.45,2.86,16.85,1.27,8.27-7.95,6.36-11.77c-1.91-3.82-4.13-4.77-6.36-4.45Z" style="fill:#263238; stroke:#263238; stroke-miterlimit:10;"></path><path d="M116.94,242s-4.02-.57-4.74,2.3c-.72,2.87,.29,8.62,.72,10.05,.43,1.44,1.01,2.59,1.44,2.59s2.15-.57,1.87-1.44c-.29-.86-1.72-4.17-1.44-7.32,.29-3.16,1.29-2.87,1.29-2.87,0,0,2.15,.29,2.59-1.29s-1.72-2.01-1.72-2.01Z" style="fill:#7a7a7a; stroke:#263238; stroke-miterlimit:10;"></path></g><g><path d="M399.3,240.16s12.08,.32,15.58,3.18c3.5,2.86,2.54,10.49,1.27,11.77s-11.45,2.86-16.85,1.27-8.27-7.95-6.36-11.77c1.91-3.82,4.13-4.77,6.36-4.45Z" style="fill:#263238; stroke:#263238; stroke-miterlimit:10;"></path><path d="M402.51,245.55s4.02-.57,4.74,2.3c.72,2.87-.29,8.62-.72,10.05-.43,1.44-1.01,2.59-1.44,2.59s-2.15-.57-1.87-1.44c.29-.86,1.72-4.17,1.44-7.32-.29-3.16-1.29-2.87-1.29-2.87,0,0-2.15,.29-2.59-1.29-.43-1.58,1.72-2.01,1.72-2.01Z" style="fill:#7a7a7a; stroke:#263238; stroke-miterlimit:10;"></path></g><path d="M443.44,294.27c-2.36-15.19-9.16-27.49-21.73-35.61-12.57-8.12-23.04-5.76-28.01-3.93s-9.95,1.57-11.52,.52-15.19-52.1-19.64-58.12c-4.45-6.02-8.64-8.12-22.25-10.73-13.61-2.62-55.24-6.28-89.54-6.28s-65.19,1.05-98.71,10.21c0,0-11.26,4.71-13.61,12.57s-15.19,50.27-15.19,50.27c0,0-8.38,3.14-12.57,2.09-4.19-1.05-12.57-5.76-23.04-3.93-10.47,1.83-25.4,15.45-28.54,22.25-3.14,6.81-2.62,33.25-2.36,40.58,.26,7.33,3.4,50.15,3.4,50.15l377.28,.79s8.38-55.65,6.02-70.84Zm-180.13-50.53c-62.84-1.05-127.77,7.59-127.77,7.59,0,0,8.38-37.96,11.52-44.25s9.95-8.38,9.95-8.38c41.37-11.52,116.77-9.69,139.03-8.64s56.03,6.55,61.27,12.57c5.24,6.02,15.45,51.06,15.45,51.06,0,0-46.6-8.9-109.44-9.95Z" style="fill:#6A6F4C; stroke:#263238; stroke-miterlimit:10;"></path><g><circle cx="411.63" cy="294.14" r="28.93" transform="translate(-82.06 183.57) rotate(-22.92)" style="fill:#fff; stroke:#263238; stroke-miterlimit:10;"></circle><circle cx="411.63" cy="294.14" r="22.97" style="fill:#fff; stroke:#263238; stroke-miterlimit:10;"></circle><circle cx="411.63" cy="294.14" r="4.91" style="fill:#fff; stroke:#263238; stroke-miterlimit:10;"></circle><g><line x1="399.06" y1="280.66" x2="399.06" y2="305.19" style="fill:#fff; stroke:#263238; stroke-miterlimit:10;"></line><line x1="402.44" y1="277.83" x2="402.44" y2="308.02" style="fill:#fff; stroke:#263238; stroke-miterlimit:10;"></line><line x1="405.83" y1="276.64" x2="405.83" y2="309.22" style="fill:#fff; stroke:#263238; stroke-miterlimit:10;"></line><line x1="409.21" y1="274.42" x2="409.21" y2="311.43" style="fill:#fff; stroke:#263238; stroke-miterlimit:10;"></line><line x1="412.59" y1="274.42" x2="412.59" y2="311.43" style="fill:#fff; stroke:#263238; stroke-miterlimit:10;"></line><line x1="415.98" y1="276.64" x2="415.98" y2="309.22" style="fill:#fff; stroke:#263238; stroke-miterlimit:10;"></line><line x1="419.36" y1="277.83" x2="419.36" y2="308.02" style="fill:#fff; stroke:#263238; stroke-miterlimit:10;"></line><line x1="422.74" y1="280.66" x2="422.74" y2="305.19" style="fill:#fff; stroke:#263238; stroke-miterlimit:10;"></line><line x1="426.15" y1="282.94" x2="426.15" y2="302.92" style="fill:#fff; stroke:#263238; stroke-miterlimit:10;"></line><line x1="395.67" y1="282.94" x2="395.67" y2="302.92" style="fill:#fff; stroke:#263238; stroke-miterlimit:10;"></line></g></g><g><circle cx="411.63" cy="343.1" r="18.72" transform="translate(7.36 694.84) rotate(-80.84)" style="fill:#fff; stroke:#263238; stroke-miterlimit:10;"></circle><circle cx="411.63" cy="343.1" r="14.86" style="fill:#fff; stroke:#263238; stroke-miterlimit:10;"></circle><circle cx="411.63" cy="343.1" r="3.18" style="fill:#fff; stroke:#263238; stroke-miterlimit:10;"></circle></g><g><circle cx="86.64" cy="291.52" r="28.93" transform="translate(-196.97 181.74) rotate(-52.29)" style="fill:#fff; stroke:#263238; stroke-miterlimit:10;"></circle><circle cx="86.64" cy="291.52" r="22.97" style="fill:#fff; stroke:#263238; stroke-miterlimit:10;"></circle><circle cx="86.64" cy="291.52" r="4.91" style="fill:#fff; stroke:#263238; stroke-miterlimit:10;"></circle><g><line x1="73.59" y1="280.66" x2="73.59" y2="305.19" style="fill:#fff; stroke:#263238; stroke-miterlimit:10;"></line><line x1="76.97" y1="277.83" x2="76.97" y2="308.02" style="fill:#fff; stroke:#263238; stroke-miterlimit:10;"></line><line x1="80.35" y1="276.64" x2="80.35" y2="309.22" style="fill:#fff; stroke:#263238; stroke-miterlimit:10;"></line><line x1="83.74" y1="274.42" x2="83.74" y2="311.43" style="fill:#fff; stroke:#263238; stroke-miterlimit:10;"></line><line x1="87.12" y1="274.42" x2="87.12" y2="311.43" style="fill:#fff; stroke:#263238; stroke-miterlimit:10;"></line><line x1="90.5" y1="276.64" x2="90.5" y2="309.22" style="fill:#fff; stroke:#263238; stroke-miterlimit:10;"></line><line x1="93.89" y1="277.83" x2="93.89" y2="308.02" style="fill:#fff; stroke:#263238; stroke-miterlimit:10;"></line><line x1="97.27" y1="280.66" x2="97.27" y2="305.19" style="fill:#fff; stroke:#263238; stroke-miterlimit:10;"></line><line x1="100.68" y1="282.94" x2="100.68" y2="302.92" style="fill:#fff; stroke:#263238; stroke-miterlimit:10;"></line><line x1="70.2" y1="282.94" x2="70.2" y2="302.92" style="fill:#fff; stroke:#263238; stroke-miterlimit:10;"></line></g></g><g><circle cx="86.64" cy="340.48" r="18.72" style="fill:#fff; stroke:#263238; stroke-miterlimit:10;"></circle><circle cx="86.64" cy="340.48" r="14.86" style="fill:#fff; stroke:#263238; stroke-miterlimit:10;"></circle><circle cx="86.64" cy="340.48" r="3.18" style="fill:#fff; stroke:#263238; stroke-miterlimit:10;"></circle></g><path d="M248.01,291.06c-5.53,0-11.05,.28-16.54,.84l-7.46,.76c-7.64,.78-13.4,7-13.4,14.48v35.22c0,7.78,6.25,14.16,14.23,14.54l13.15,.62c6.37,.3,12.82,.31,19.18,.03l16.01-.7c8.01-.35,14.28-6.74,14.28-14.54v-35.04c0-7.54-5.81-13.77-13.53-14.49l-10.76-1c-5.04-.47-10.11-.7-15.18-.7Z" style="fill:#263238; stroke:#263238; stroke-miterlimit:10;"></path><path d="M286.35,301.72c-.39-.93-.88-1.8-1.44-2.62v1.62h-2.44v-2.82h1.51c-.3-.35-.61-.68-.95-1h-.57v-.52c-.32-.28-.65-.54-1-.8v1.32h-2.44v-2.75c-.99-.47-2.05-.82-3.16-1.07h-.28v-.07c-.33-.07-.66-.12-1-.16v.23h-2.44v-.48l-1-.09v.58h-2.44v-.8l-1-.09v.9h-2.44v-1.13l-1-.09v1.22h-2.44v-1.43c-.33-.03-.67-.06-1-.08v1.51h-2.44v-1.69c-.33-.02-.67-.04-1-.06v1.74h-2.44v-1.87c-.33-.01-.67-.02-1-.03v1.91h-2.44v-1.98c-.33,0-.67,0-1-.01v2h-2.44v-2.02s-.05,0-.07,0c-.31,0-.62,0-.93,.01v2.01h-2.44v-1.98c-.33,0-.67,0-1,.02v1.96h-2.44v-1.87c-.33,.01-.67,.02-1,.04v1.83h-2.44v-1.69c-.33,.02-.67,.04-1,.06v1.63h-2.44v-1.44c-.33,.03-.67,.06-1,.09v1.35h-2.44v-1.13l-1,.1v1.03h-2.44v-.78l-1,.1v.68h-2.44v-.43c-.34,.03-.67,.09-1,.15v.28h-1.32c-.96,.25-1.88,.58-2.75,1h.63v2.82h-2.44v-1.79c-.34,.23-.68,.47-1,.72v1.07h-1.2c-.32,.32-.63,.65-.92,1h2.13v2.82h-2.44v-2.45c-.36,.46-.69,.95-1,1.45v1h-.56c-.16,.33-.32,.66-.46,1h1.01v2.82h-1.84c-.06,.33-.11,.66-.15,1h1.98v2.82h-2.08v1h2.08v2.82h-2.08v1h2.08v2.82h-2.08v1h2.08v2.82h-2.08v1h2.08v2.82h-2.08v1h2.08v2.82h-2.08v1h2.08v2.82h-2.08v1h2.08v2.82h-2.08v1h2.08v2.82h-2.08v1h2.08v2.82h-2.06c0,.34,.02,.67,.05,1h2.01v2.82h-1.44c.11,.34,.23,.67,.36,1h1.07v2.15c.35,.58,.73,1.14,1.16,1.67h2.28v2.23c.77,.61,1.59,1.14,2.48,1.59h.96v.46c.33,.14,.66,.28,1,.4v-.85h2.44v1.46c.33,.06,.66,.1,1,.13v-1.59h2.44v1.74l1,.05v-1.79h2.44v1.9l1,.05v-1.95h2.44v2.07l1,.05v-2.11h2.44v2.23l1,.05v-2.28h2.44v2.36c.33,.01,.67,.02,1,.04v-2.4h2.44v2.47c.33,0,.67,0,1,.01v-2.48h2.44v2.51c.33,0,.67,0,1,0v-2.51h2.44v2.49c.33,0,.67,0,1,0v-2.48h2.44v2.42c.33,0,.67-.02,1-.03v-2.39h2.44v2.31l1-.04v-2.26h2.44v2.16l1-.04v-2.11h2.44v2.01l1-.04v-1.96h2.44v1.85l1-.04v-1.81h2.44v1.7l1-.04v-1.66h2.44v1.49c.34-.05,.67-.11,1-.18v-1.31h2.44v.59c.34-.13,.67-.27,1-.42v-.17h.34c.6-.3,1.17-.63,1.72-1h-2.06v-2.82h2.44v2.55c.34-.25,.68-.51,1-.79v-1.76h1.72c.67-.81,1.24-1.7,1.72-2.64v-1.18h.54c.13-.33,.26-.66,.36-1h-.9v-2.82h1.48c.03-.33,.04-.66,.05-1h-1.53v-2.82h1.56v-1h-1.56v-2.82h1.56v-1h-1.56v-2.82h1.56v-1h-1.56v-2.82h1.56v-1h-1.56v-2.82h1.56v-1h-1.56v-2.82h1.56v-1h-1.56v-2.82h1.56v-1h-1.56v-2.82h1.56v-1h-1.56v-2.82h1.56v-1h-1.56v-2.82h1.45c-.04-.34-.08-.67-.15-1h-1.3v-2.82h.44Zm-70.23,48.67h-2.44v-2.82h2.44v2.82Zm0-3.82h-2.44v-2.82h2.44v2.82Zm0-3.82h-2.44v-2.82h2.44v2.82Zm0-3.82h-2.44v-2.82h2.44v2.82Zm0-3.82h-2.44v-2.82h2.44v2.82Zm0-3.82h-2.44v-2.82h2.44v2.82Zm0-3.82h-2.44v-2.82h2.44v2.82Zm0-3.82h-2.44v-2.82h2.44v2.82Zm0-3.82h-2.44v-2.82h2.44v2.82Zm0-3.82h-2.44v-2.82h2.44v2.82Zm0-3.82h-2.44v-2.82h2.44v2.82Zm0-3.82h-2.44v-2.82h2.44v2.82Zm0-3.82h-2.44v-2.82h2.44v2.82Zm3.44,49.67h-2.44v-2.82h2.44v2.82Zm0-3.82h-2.44v-2.82h2.44v2.82Zm0-3.82h-2.44v-2.82h2.44v2.82Zm0-3.82h-2.44v-2.82h2.44v2.82Zm0-3.82h-2.44v-2.82h2.44v2.82Zm0-3.82h-2.44v-2.82h2.44v2.82Zm0-3.82h-2.44v-2.82h2.44v2.82Zm0-3.82h-2.44v-2.82h2.44v2.82Zm0-3.82h-2.44v-2.82h2.44v2.82Zm0-3.82h-2.44v-2.82h2.44v2.82Zm0-3.82h-2.44v-2.82h2.44v2.82Zm0-3.82h-2.44v-2.82h2.44v2.82Zm0-3.82h-2.44v-2.82h2.44v2.82Zm0-3.82h-2.44v-2.82h2.44v2.82Zm0-3.82h-2.44v-2.82h2.44v2.82Zm3.44,53.5h-2.44v-2.82h2.44v2.82Zm0-3.82h-2.44v-2.82h2.44v2.82Zm0-3.82h-2.44v-2.82h2.44v2.82Zm0-3.82h-2.44v-2.82h2.44v2.82Zm0-3.82h-2.44v-2.82h2.44v2.82Zm0-3.82h-2.44v-2.82h2.44v2.82Zm0-3.82h-2.44v-2.82h2.44v2.82Zm0-3.82h-2.44v-2.82h2.44v2.82Zm0-3.82h-2.44v-2.82h2.44v2.82Zm0-3.82h-2.44v-2.82h2.44v2.82Zm0-3.82h-2.44v-2.82h2.44v2.82Zm0-3.82h-2.44v-2.82h2.44v2.82Zm0-3.82h-2.44v-2.82h2.44v2.82Zm0-3.82h-2.44v-2.82h2.44v2.82Zm0-3.82h-2.44v-2.82h2.44v2.82Zm0-3.82h-2.44v-2.82h2.44v2.82Zm3.44,57.32h-2.44v-2.82h2.44v2.82Zm0-3.82h-2.44v-2.82h2.44v2.82Zm0-3.82h-2.44v-2.82h2.44v2.82Zm0-3.82h-2.44v-2.82h2.44v2.82Zm0-3.82h-2.44v-2.82h2.44v2.82Zm0-3.82h-2.44v-2.82h2.44v2.82Zm0-3.82h-2.44v-2.82h2.44v2.82Zm0-3.82h-2.44v-2.82h2.44v2.82Zm0-3.82h-2.44v-2.82h2.44v2.82Zm0-3.82h-2.44v-2.82h2.44v2.82Zm0-3.82h-2.44v-2.82h2.44v2.82Zm0-3.82h-2.44v-2.82h2.44v2.82Zm0-3.82h-2.44v-2.82h2.44v2.82Zm0-3.82h-2.44v-2.82h2.44v2.82Zm0-3.82h-2.44v-2.82h2.44v2.82Zm0-3.82h-2.44v-2.82h2.44v2.82Zm3.44,57.32h-2.44v-2.82h2.44v2.82Zm0-3.82h-2.44v-2.82h2.44v2.82Zm0-3.82h-2.44v-2.82h2.44v2.82Zm0-3.82h-2.44v-2.82h2.44v2.82Zm0-3.82h-2.44v-2.82h2.44v2.82Zm0-3.82h-2.44v-2.82h2.44v2.82Zm0-3.82h-2.44v-2.82h2.44v2.82Zm0-3.82h-2.44v-2.82h2.44v2.82Zm0-3.82h-2.44v-2.82h2.44v2.82Zm0-3.82h-2.44v-2.82h2.44v2.82Zm0-3.82h-2.44v-2.82h2.44v2.82Zm0-3.82h-2.44v-2.82h2.44v2.82Zm0-3.82h-2.44v-2.82h2.44v2.82Zm0-3.82h-2.44v-2.82h2.44v2.82Zm0-3.82h-2.44v-2.82h2.44v2.82Zm0-3.82h-2.44v-2.82h2.44v2.82Zm3.44,57.32h-2.44v-2.82h2.44v2.82Zm0-3.82h-2.44v-2.82h2.44v2.82Zm0-3.82h-2.44v-2.82h2.44v2.82Zm0-3.82h-2.44v-2.82h2.44v2.82Zm0-3.82h-2.44v-2.82h2.44v2.82Zm0-3.82h-2.44v-2.82h2.44v2.82Zm0-3.82h-2.44v-2.82h2.44v2.82Zm0-3.82h-2.44v-2.82h2.44v2.82Zm0-3.82h-2.44v-2.82h2.44v2.82Zm0-3.82h-2.44v-2.82h2.44v2.82Zm0-3.82h-2.44v-2.82h2.44v2.82Zm0-3.82h-2.44v-2.82h2.44v2.82Zm0-3.82h-2.44v-2.82h2.44v2.82Zm0-3.82h-2.44v-2.82h2.44v2.82Zm0-3.82h-2.44v-2.82h2.44v2.82Zm0-3.82h-2.44v-2.82h2.44v2.82Zm3.44,57.32h-2.44v-2.82h2.44v2.82Zm0-3.82h-2.44v-2.82h2.44v2.82Zm0-3.82h-2.44v-2.82h2.44v2.82Zm0-3.82h-2.44v-2.82h2.44v2.82Zm0-3.82h-2.44v-2.82h2.44v2.82Zm0-3.82h-2.44v-2.82h2.44v2.82Zm0-3.82h-2.44v-2.82h2.44v2.82Zm0-3.82h-2.44v-2.82h2.44v2.82Zm0-3.82h-2.44v-2.82h2.44v2.82Zm0-3.82h-2.44v-2.82h2.44v2.82Zm0-3.82h-2.44v-2.82h2.44v2.82Zm0-3.82h-2.44v-2.82h2.44v2.82Zm0-3.82h-2.44v-2.82h2.44v2.82Zm0-3.82h-2.44v-2.82h2.44v2.82Zm0-3.82h-2.44v-2.82h2.44v2.82Zm0-3.82h-2.44v-2.82h2.44v2.82Zm3.44,57.32h-2.44v-2.82h2.44v2.82Zm0-3.82h-2.44v-2.82h2.44v2.82Zm0-3.82h-2.44v-2.82h2.44v2.82Zm0-3.82h-2.44v-2.82h2.44v2.82Zm0-3.82h-2.44v-2.82h2.44v2.82Zm0-3.82h-2.44v-2.82h2.44v2.82Zm0-3.82h-2.44v-2.82h2.44v2.82Zm0-3.82h-2.44v-2.82h2.44v2.82Zm0-3.82h-2.44v-2.82h2.44v2.82Zm0-3.82h-2.44v-2.82h2.44v2.82Zm0-3.82h-2.44v-2.82h2.44v2.82Zm0-3.82h-2.44v-2.82h2.44v2.82Zm0-3.82h-2.44v-2.82h2.44v2.82Zm0-3.82h-2.44v-2.82h2.44v2.82Zm0-3.82h-2.44v-2.82h2.44v2.82Zm0-3.82h-2.44v-2.82h2.44v2.82Zm3.44,57.32h-2.44v-2.82h2.44v2.82Zm0-3.82h-2.44v-2.82h2.44v2.82Zm0-3.82h-2.44v-2.82h2.44v2.82Zm0-3.82h-2.44v-2.82h2.44v2.82Zm0-3.82h-2.44v-2.82h2.44v2.82Zm0-3.82h-2.44v-2.82h2.44v2.82Zm0-3.82h-2.44v-2.82h2.44v2.82Zm0-3.82h-2.44v-2.82h2.44v2.82Zm0-3.82h-2.44v-2.82h2.44v2.82Zm0-3.82h-2.44v-2.82h2.44v2.82Zm0-3.82h-2.44v-2.82h2.44v2.82Zm0-3.82h-2.44v-2.82h2.44v2.82Zm0-3.82h-2.44v-2.82h2.44v2.82Zm0-3.82h-2.44v-2.82h2.44v2.82Zm0-3.82h-2.44v-2.82h2.44v2.82Zm0-3.82h-2.44v-2.82h2.44v2.82Zm3.44,57.32h-2.44v-2.82h2.44v2.82Zm0-3.82h-2.44v-2.82h2.44v2.82Zm0-3.82h-2.44v-2.82h2.44v2.82Zm0-3.82h-2.44v-2.82h2.44v2.82Zm0-3.82h-2.44v-2.82h2.44v2.82Zm0-3.82h-2.44v-2.82h2.44v2.82Zm0-3.82h-2.44v-2.82h2.44v2.82Zm0-3.82h-2.44v-2.82h2.44v2.82Zm0-3.82h-2.44v-2.82h2.44v2.82Zm0-3.82h-2.44v-2.82h2.44v2.82Zm0-3.82h-2.44v-2.82h2.44v2.82Zm0-3.82h-2.44v-2.82h2.44v2.82Zm0-3.82h-2.44v-2.82h2.44v2.82Zm0-3.82h-2.44v-2.82h2.44v2.82Zm0-3.82h-2.44v-2.82h2.44v2.82Zm0-3.82h-2.44v-2.82h2.44v2.82Zm3.44,57.32h-2.44v-2.82h2.44v2.82Zm0-3.82h-2.44v-2.82h2.44v2.82Zm0-3.82h-2.44v-2.82h2.44v2.82Zm0-3.82h-2.44v-2.82h2.44v2.82Zm0-3.82h-2.44v-2.82h2.44v2.82Zm0-3.82h-2.44v-2.82h2.44v2.82Zm0-3.82h-2.44v-2.82h2.44v2.82Zm0-3.82h-2.44v-2.82h2.44v2.82Zm0-3.82h-2.44v-2.82h2.44v2.82Zm0-3.82h-2.44v-2.82h2.44v2.82Zm0-3.82h-2.44v-2.82h2.44v2.82Zm0-3.82h-2.44v-2.82h2.44v2.82Zm0-3.82h-2.44v-2.82h2.44v2.82Zm0-3.82h-2.44v-2.82h2.44v2.82Zm0-3.82h-2.44v-2.82h2.44v2.82Zm0-3.82h-2.44v-2.82h2.44v2.82Zm3.44,57.32h-2.44v-2.82h2.44v2.82Zm0-3.82h-2.44v-2.82h2.44v2.82Zm0-3.82h-2.44v-2.82h2.44v2.82Zm0-3.82h-2.44v-2.82h2.44v2.82Zm0-3.82h-2.44v-2.82h2.44v2.82Zm0-3.82h-2.44v-2.82h2.44v2.82Zm0-3.82h-2.44v-2.82h2.44v2.82Zm0-3.82h-2.44v-2.82h2.44v2.82Zm0-3.82h-2.44v-2.82h2.44v2.82Zm0-3.82h-2.44v-2.82h2.44v2.82Zm0-3.82h-2.44v-2.82h2.44v2.82Zm0-3.82h-2.44v-2.82h2.44v2.82Zm0-3.82h-2.44v-2.82h2.44v2.82Zm0-3.82h-2.44v-2.82h2.44v2.82Zm0-3.82h-2.44v-2.82h2.44v2.82Zm0-3.82h-2.44v-2.82h2.44v2.82Zm3.44,57.32h-2.44v-2.82h2.44v2.82Zm0-3.82h-2.44v-2.82h2.44v2.82Zm0-3.82h-2.44v-2.82h2.44v2.82Zm0-3.82h-2.44v-2.82h2.44v2.82Zm0-3.82h-2.44v-2.82h2.44v2.82Zm0-3.82h-2.44v-2.82h2.44v2.82Zm0-3.82h-2.44v-2.82h2.44v2.82Zm0-3.82h-2.44v-2.82h2.44v2.82Zm0-3.82h-2.44v-2.82h2.44v2.82Zm0-3.82h-2.44v-2.82h2.44v2.82Zm0-3.82h-2.44v-2.82h2.44v2.82Zm0-3.82h-2.44v-2.82h2.44v2.82Zm0-3.82h-2.44v-2.82h2.44v2.82Zm0-3.82h-2.44v-2.82h2.44v2.82Zm0-3.82h-2.44v-2.82h2.44v2.82Zm0-3.82h-2.44v-2.82h2.44v2.82Zm3.44,57.32h-2.44v-2.82h2.44v2.82Zm0-3.82h-2.44v-2.82h2.44v2.82Zm0-3.82h-2.44v-2.82h2.44v2.82Zm0-3.82h-2.44v-2.82h2.44v2.82Zm0-3.82h-2.44v-2.82h2.44v2.82Zm0-3.82h-2.44v-2.82h2.44v2.82Zm0-3.82h-2.44v-2.82h2.44v2.82Zm0-3.82h-2.44v-2.82h2.44v2.82Zm0-3.82h-2.44v-2.82h2.44v2.82Zm0-3.82h-2.44v-2.82h2.44v2.82Zm0-3.82h-2.44v-2.82h2.44v2.82Zm0-3.82h-2.44v-2.82h2.44v2.82Zm0-3.82h-2.44v-2.82h2.44v2.82Zm0-3.82h-2.44v-2.82h2.44v2.82Zm0-3.82h-2.44v-2.82h2.44v2.82Zm0-3.82h-2.44v-2.82h2.44v2.82Zm3.44,57.32h-2.44v-2.82h2.44v2.82Zm0-3.82h-2.44v-2.82h2.44v2.82Zm0-3.82h-2.44v-2.82h2.44v2.82Zm0-3.82h-2.44v-2.82h2.44v2.82Zm0-3.82h-2.44v-2.82h2.44v2.82Zm0-3.82h-2.44v-2.82h2.44v2.82Zm0-3.82h-2.44v-2.82h2.44v2.82Zm0-3.82h-2.44v-2.82h2.44v2.82Zm0-3.82h-2.44v-2.82h2.44v2.82Zm0-3.82h-2.44v-2.82h2.44v2.82Zm0-3.82h-2.44v-2.82h2.44v2.82Zm0-3.82h-2.44v-2.82h2.44v2.82Zm0-3.82h-2.44v-2.82h2.44v2.82Zm0-3.82h-2.44v-2.82h2.44v2.82Zm0-3.82h-2.44v-2.82h2.44v2.82Zm0-3.82h-2.44v-2.82h2.44v2.82Zm3.44,57.32h-2.44v-2.82h2.44v2.82Zm0-3.82h-2.44v-2.82h2.44v2.82Zm0-3.82h-2.44v-2.82h2.44v2.82Zm0-3.82h-2.44v-2.82h2.44v2.82Zm0-3.82h-2.44v-2.82h2.44v2.82Zm0-3.82h-2.44v-2.82h2.44v2.82Zm0-3.82h-2.44v-2.82h2.44v2.82Zm0-3.82h-2.44v-2.82h2.44v2.82Zm0-3.82h-2.44v-2.82h2.44v2.82Zm0-3.82h-2.44v-2.82h2.44v2.82Zm0-3.82h-2.44v-2.82h2.44v2.82Zm0-3.82h-2.44v-2.82h2.44v2.82Zm0-3.82h-2.44v-2.82h2.44v2.82Zm0-3.82h-2.44v-2.82h2.44v2.82Zm0-3.82h-2.44v-2.82h2.44v2.82Zm0-3.82h-2.44v-2.82h2.44v2.82Zm3.44,57.32h-2.44v-2.82h2.44v2.82Zm0-3.82h-2.44v-2.82h2.44v2.82Zm0-3.82h-2.44v-2.82h2.44v2.82Zm0-3.82h-2.44v-2.82h2.44v2.82Zm0-3.82h-2.44v-2.82h2.44v2.82Zm0-3.82h-2.44v-2.82h2.44v2.82Zm0-3.82h-2.44v-2.82h2.44v2.82Zm0-3.82h-2.44v-2.82h2.44v2.82Zm0-3.82h-2.44v-2.82h2.44v2.82Zm0-3.82h-2.44v-2.82h2.44v2.82Zm0-3.82h-2.44v-2.82h2.44v2.82Zm0-3.82h-2.44v-2.82h2.44v2.82Zm0-3.82h-2.44v-2.82h2.44v2.82Zm0-3.82h-2.44v-2.82h2.44v2.82Zm0-3.82h-2.44v-2.82h2.44v2.82Zm0-3.82h-2.44v-2.82h2.44v2.82Zm3.44,57.32h-2.44v-2.82h2.44v2.82Zm0-3.82h-2.44v-2.82h2.44v2.82Zm0-3.82h-2.44v-2.82h2.44v2.82Zm0-3.82h-2.44v-2.82h2.44v2.82Zm0-3.82h-2.44v-2.82h2.44v2.82Zm0-3.82h-2.44v-2.82h2.44v2.82Zm0-3.82h-2.44v-2.82h2.44v2.82Zm0-3.82h-2.44v-2.82h2.44v2.82Zm0-3.82h-2.44v-2.82h2.44v2.82Zm0-3.82h-2.44v-2.82h2.44v2.82Zm0-3.82h-2.44v-2.82h2.44v2.82Zm0-3.82h-2.44v-2.82h2.44v2.82Zm0-3.82h-2.44v-2.82h2.44v2.82Zm0-3.82h-2.44v-2.82h2.44v2.82Zm0-3.82h-2.44v-2.82h2.44v2.82Zm0-3.82h-2.44v-2.82h2.44v2.82Zm3.44,57.32h-2.44v-2.82h2.44v2.82Zm0-3.82h-2.44v-2.82h2.44v2.82Zm0-3.82h-2.44v-2.82h2.44v2.82Zm0-3.82h-2.44v-2.82h2.44v2.82Zm0-3.82h-2.44v-2.82h2.44v2.82Zm0-3.82h-2.44v-2.82h2.44v2.82Zm0-3.82h-2.44v-2.82h2.44v2.82Zm0-3.82h-2.44v-2.82h2.44v2.82Zm0-3.82h-2.44v-2.82h2.44v2.82Zm0-3.82h-2.44v-2.82h2.44v2.82Zm0-3.82h-2.44v-2.82h2.44v2.82Zm0-3.82h-2.44v-2.82h2.44v2.82Zm0-3.82h-2.44v-2.82h2.44v2.82Zm0-3.82h-2.44v-2.82h2.44v2.82Zm0-3.82h-2.44v-2.82h2.44v2.82Zm0-3.82h-2.44v-2.82h2.44v2.82Zm3.44,53.5h-2.44v-2.82h2.44v2.82Zm0-3.82h-2.44v-2.82h2.44v2.82Zm0-3.82h-2.44v-2.82h2.44v2.82Zm0-3.82h-2.44v-2.82h2.44v2.82Zm0-3.82h-2.44v-2.82h2.44v2.82Zm0-3.82h-2.44v-2.82h2.44v2.82Zm0-3.82h-2.44v-2.82h2.44v2.82Zm0-3.82h-2.44v-2.82h2.44v2.82Zm0-3.82h-2.44v-2.82h2.44v2.82Zm0-3.82h-2.44v-2.82h2.44v2.82Zm0-3.82h-2.44v-2.82h2.44v2.82Zm0-3.82h-2.44v-2.82h2.44v2.82Zm0-3.82h-2.44v-2.82h2.44v2.82Zm0-3.82h-2.44v-2.82h2.44v2.82Zm3.44,49.67h-2.44v-2.82h2.44v2.82Zm0-3.82h-2.44v-2.82h2.44v2.82Zm0-3.82h-2.44v-2.82h2.44v2.82Zm0-3.82h-2.44v-2.82h2.44v2.82Zm0-3.82h-2.44v-2.82h2.44v2.82Zm0-3.82h-2.44v-2.82h2.44v2.82Zm0-3.82h-2.44v-2.82h2.44v2.82Zm0-3.82h-2.44v-2.82h2.44v2.82Zm0-3.82h-2.44v-2.82h2.44v2.82Zm0-3.82h-2.44v-2.82h2.44v2.82Zm0-3.82h-2.44v-2.82h2.44v2.82Zm0-3.82h-2.44v-2.82h2.44v2.82Zm0-3.82h-2.44v-2.82h2.44v2.82Z" style="fill:#fff;"></path><path d="M247.93,360.74c-3.37,0-6.73-.08-10.08-.24l-13.15-.62c-9.58-.45-17.09-8.15-17.09-17.53v-35.22c0-9.02,6.92-16.53,16.1-17.46l7.46-.76c10.71-1.09,21.58-1.13,32.3-.13l10.76,1c9.26,.86,16.25,8.38,16.25,17.48v35.04c0,9.41-7.53,17.12-17.15,17.54l-16.01,.7c-3.11,.14-6.24,.2-9.38,.2Zm.08-69.68c-5.53,0-11.05,.28-16.54,.84l-7.46,.76c-7.64,.78-13.4,7-13.4,14.48v35.22c0,7.78,6.25,14.16,14.23,14.54l13.15,.62c6.37,.3,12.82,.31,19.18,.03l16.01-.7c8.01-.35,14.28-6.74,14.28-14.54v-35.04c0-7.54-5.81-13.77-13.53-14.49l-10.76-1c-5.04-.47-10.11-.7-15.18-.7Z" style="fill:#fff; stroke:#263238; stroke-miterlimit:10;"></path><g><path d="M193.32,305.65c1.71,0,3.33,.63,4.61,1.81,1.42,1.31,2.21,3.1,2.21,5.03v19.68c0,1.84-.72,3.57-2.03,4.87-1.29,1.27-2.99,1.97-4.8,1.97-.03,0-.06,0-.09,0l-64.52-.84c-3.65-.05-6.61-2.94-6.74-6.59l-.48-13.44c-.13-3.65,2.62-6.75,6.27-7.06l65-5.4c.2-.02,.39-.02,.59-.02Z" style="fill:#263238; stroke:#263238; stroke-miterlimit:10;"></path><path d="M193.31,342c2.6,0,5.05-1,6.91-2.84,1.89-1.86,2.93-4.35,2.93-7v-19.68c0-2.74-1.16-5.38-3.18-7.24-2.02-1.86-4.74-2.79-7.48-2.56l-65,5.4c-5.24,.44-9.2,4.9-9.02,10.15l.48,13.44c.19,5.25,4.45,9.42,9.7,9.48l64.52,.84s.09,0,.13,0Zm.02-36.35c1.71,0,3.33,.63,4.61,1.81,1.42,1.31,2.21,3.1,2.21,5.03v19.68c0,1.84-.72,3.57-2.03,4.87-1.29,1.27-2.99,1.97-4.8,1.97-.03,0-.06,0-.09,0l-64.52-.84c-3.65-.05-6.61-2.94-6.74-6.59l-.48-13.44c-.13-3.65,2.62-6.75,6.27-7.06l65-5.4c.2-.02,.39-.02,.59-.02Z" style="fill:#fff; stroke:#263238; stroke-miterlimit:10;"></path><path d="M125.89,311.49v.87h3.27v-1.4l1-.08v1.49h3.27v-1.76l1-.08v1.84h3.27v-2.11l1-.08v2.2h3.27v-2.47l1-.08v2.55h3.27v-2.82l1-.08v2.91h3.27v-3.18l1-.08v3.26h3.27v-3.42h-1.41l12.04-1h2.19v-.18l1-.08v.26h3.27v-.54l1-.08v.62h3.27v-.89l1-.08v.97h3.27v-1.25l1-.08v1.33h3.27v-1.6l1-.08v1.68h3.27v-1.96l1-.08v2.04h3.27v-2.29s.04,0,.06,0c.32,0,.63,.03,.94,.07v2.22h3.27v-.82c.13,.11,.27,.21,.4,.33,.48,.44,.88,.95,1.21,1.49h-.61v3.42h1.6s0,.09,0,.13v.87h-1.6v3.42h1.6v1h-1.6v3.42h1.6v1h-1.6v3.42h1.6v1h-1.6v3.42h1.6v1h-1.6v3.42h1.21c-.12,.34-.26,.68-.44,1h-.77v1.12c-.14,.16-.28,.32-.43,.47-.18,.18-.37,.34-.57,.5v-2.09h-3.27v3.49c-.32,.04-.64,.07-.96,.07h-.04v-3.56h-3.27v3.52h-1v-3.52h-3.27v3.46h-1v-3.46h-3.27v3.41h-1v-3.41h-3.27v3.35h-1v-3.35h-3.27v3.3h-1v-3.3h-3.27v3.24h-1v-3.24h-3.27v3.19h-1v-3.19h-3.27v3.13h-1v-3.13h-3.27v3.08h-1v-3.08h-3.27v3.02h-1v-3.02h-3.27v2.97h-1v-2.97h-3.27v2.91h-1v-2.91h-3.27v2.86h-1v-2.86h-3.27v2.8h-1v-2.8h-3.27v2.74h-1v-2.74h-3.27v2.08c-.35-.16-.69-.35-1-.57v-1.51h-1.56c-.24-.31-.44-.65-.63-1h2.19v-3.42h-2.96l-.04-1h2.99v-3.42h-3.12l-.04-1h3.15v-3.42h-3.27l-.04-1h3.31v-3.42h-3.41c0-.34,.03-.67,.08-1h3.33v-3.42h-1.71c.33-.37,.7-.71,1.11-1h.6v-.39c.32-.18,.65-.34,1-.48Zm68.37,22.95h3.27v-3.42h-3.27v3.42Zm0-4.42h3.27v-3.42h-3.27v3.42Zm0-4.42h3.27v-3.42h-3.27v3.42Zm0-4.42h3.27v-3.42h-3.27v3.42Zm0-4.42h3.27v-3.42h-3.27v3.42Zm0-4.42h3.27v-3.42h-3.27v3.42Zm-4.27,22.08h3.27v-3.42h-3.27v3.42Zm0-4.42h3.27v-3.42h-3.27v3.42Zm0-4.42h3.27v-3.42h-3.27v3.42Zm0-4.42h3.27v-3.42h-3.27v3.42Zm0-4.42h3.27v-3.42h-3.27v3.42Zm0-4.42h3.27v-3.42h-3.27v3.42Zm-4.27,22.08h3.27v-3.42h-3.27v3.42Zm0-4.42h3.27v-3.42h-3.27v3.42Zm0-4.42h3.27v-3.42h-3.27v3.42Zm0-4.42h3.27v-3.42h-3.27v3.42Zm0-4.42h3.27v-3.42h-3.27v3.42Zm0-4.42h3.27v-3.42h-3.27v3.42Zm-4.27,22.08h3.27v-3.42h-3.27v3.42Zm0-4.42h3.27v-3.42h-3.27v3.42Zm0-4.42h3.27v-3.42h-3.27v3.42Zm0-4.42h3.27v-3.42h-3.27v3.42Zm0-4.42h3.27v-3.42h-3.27v3.42Zm0-4.42h3.27v-3.42h-3.27v3.42Zm-4.27,22.08h3.27v-3.42h-3.27v3.42Zm0-4.42h3.27v-3.42h-3.27v3.42Zm0-4.42h3.27v-3.42h-3.27v3.42Zm0-4.42h3.27v-3.42h-3.27v3.42Zm0-4.42h3.27v-3.42h-3.27v3.42Zm0-4.42h3.27v-3.42h-3.27v3.42Zm-4.27,22.08h3.27v-3.42h-3.27v3.42Zm0-4.42h3.27v-3.42h-3.27v3.42Zm0-4.42h3.27v-3.42h-3.27v3.42Zm0-4.42h3.27v-3.42h-3.27v3.42Zm0-4.42h3.27v-3.42h-3.27v3.42Zm0-4.42h3.27v-3.42h-3.27v3.42Zm-4.27,22.08h3.27v-3.42h-3.27v3.42Zm0-4.42h3.27v-3.42h-3.27v3.42Zm0-4.42h3.27v-3.42h-3.27v3.42Zm0-4.42h3.27v-3.42h-3.27v3.42Zm0-4.42h3.27v-3.42h-3.27v3.42Zm0-4.42h3.27v-3.42h-3.27v3.42Zm-4.27,22.08h3.27v-3.42h-3.27v3.42Zm0-4.42h3.27v-3.42h-3.27v3.42Zm0-4.42h3.27v-3.42h-3.27v3.42Zm0-4.42h3.27v-3.42h-3.27v3.42Zm0-4.42h3.27v-3.42h-3.27v3.42Zm0-4.42h3.27v-3.42h-3.27v3.42Zm-4.27,22.08h3.27v-3.42h-3.27v3.42Zm0-4.42h3.27v-3.42h-3.27v3.42Zm0-4.42h3.27v-3.42h-3.27v3.42Zm0-4.42h3.27v-3.42h-3.27v3.42Zm0-4.42h3.27v-3.42h-3.27v3.42Zm0-4.42h3.27v-3.42h-3.27v3.42Zm-4.27,22.08h3.27v-3.42h-3.27v3.42Zm0-4.42h3.27v-3.42h-3.27v3.42Zm0-4.42h3.27v-3.42h-3.27v3.42Zm0-4.42h3.27v-3.42h-3.27v3.42Zm0-4.42h3.27v-3.42h-3.27v3.42Zm0-4.42h3.27v-3.42h-3.27v3.42Zm-4.27,22.08h3.27v-3.42h-3.27v3.42Zm0-4.42h3.27v-3.42h-3.27v3.42Zm0-4.42h3.27v-3.42h-3.27v3.42Zm0-4.42h3.27v-3.42h-3.27v3.42Zm0-4.42h3.27v-3.42h-3.27v3.42Zm-4.27,17.66h3.27v-3.42h-3.27v3.42Zm0-4.42h3.27v-3.42h-3.27v3.42Zm0-4.42h3.27v-3.42h-3.27v3.42Zm0-4.42h3.27v-3.42h-3.27v3.42Zm0-4.42h3.27v-3.42h-3.27v3.42Zm-4.27,17.66h3.27v-3.42h-3.27v3.42Zm0-4.42h3.27v-3.42h-3.27v3.42Zm0-4.42h3.27v-3.42h-3.27v3.42Zm0-4.42h3.27v-3.42h-3.27v3.42Zm0-4.42h3.27v-3.42h-3.27v3.42Zm-4.27,17.66h3.27v-3.42h-3.27v3.42Zm0-4.42h3.27v-3.42h-3.27v3.42Zm0-4.42h3.27v-3.42h-3.27v3.42Zm0-4.42h3.27v-3.42h-3.27v3.42Zm0-4.42h3.27v-3.42h-3.27v3.42Zm-4.27,17.66h3.27v-3.42h-3.27v3.42Zm0-4.42h3.27v-3.42h-3.27v3.42Zm0-4.42h3.27v-3.42h-3.27v3.42Zm0-4.42h3.27v-3.42h-3.27v3.42Zm0-4.42h3.27v-3.42h-3.27v3.42Zm-4.27,17.66h3.27v-3.42h-3.27v3.42Zm0-4.42h3.27v-3.42h-3.27v3.42Zm0-4.42h3.27v-3.42h-3.27v3.42Zm0-4.42h3.27v-3.42h-3.27v3.42Zm0-4.42h3.27v-3.42h-3.27v3.42Zm-4.27,17.66h3.27v-3.42h-3.27v3.42Zm0-4.42h3.27v-3.42h-3.27v3.42Zm0-4.42h3.27v-3.42h-3.27v3.42Zm0-4.42h3.27v-3.42h-3.27v3.42Zm0-4.42h3.27v-3.42h-3.27v3.42Z" style="fill:#fff;"></path><g><circle cx="134.01" cy="323.71" r="9.05" transform="translate(-189.65 189.57) rotate(-45)" style="fill:#fff; stroke:#263238; stroke-miterlimit:10;"></circle><path d="M128.07,323.71c0-3.28,2.66-5.93,5.93-5.93s5.93,2.66,5.93,5.93-2.66,5.93-5.93,5.93-5.93-2.66-5.93-5.93Z" style="fill:#fff; stroke:#263238; stroke-miterlimit:10;"></path></g></g><g><path d="M67.91,347.79h-9.83s.23,13.8,1.64,21.99c1.4,8.19,3.98,9.12,6.08,9.12s25.03-1.4,25.03-1.4l340.17,4.21s4.91,0,6.32-3.51c1.4-3.51,3.28-23.86,2.34-25.03-.94-1.17-4.45-1.64-7.02-1.17-2.57,.47-5.15,4.68-11.23,8.19-6.08,3.51-14.04,3.74-19.18,.47-5.15-3.28-10.29-7.95-12.63-8.66-2.34-.7-86.1-2.81-90.31-1.87-4.21,.94-7.72,3.98-8.42,5.38-.7,1.4-3.28,4.45-7.49,5.85-4.21,1.4-69.25,0-69.25,0,0,0-6.55-2.57-9.12-6.32-2.57-3.74-3.74-7.02-8.42-7.25-4.68-.23-85.86-1.64-87.73-.47-1.87,1.17-4.91,5.61-8.19,8.89s-10.76,4.68-17.55,4.45c-6.78-.23-15.21-12.87-15.21-12.87Z" style="fill:#fff; stroke:#263238; stroke-miterlimit:10;"></path><path d="M437.5,366.68s-.32,3.5-6.04,4.45-119.57,0-119.57,0" style="fill:#fff; stroke:#263238; stroke-miterlimit:10;"></path><path d="M187.56,368.27l-112.89,.32s-10.18,2.23-14.63-10.81" style="fill:none; stroke:#263238; stroke-miterlimit:10;"></path></g><rect x="189.79" y="362.54" width="118.61" height="24.49" rx="4.49" ry="4.49" style="fill:#fff; stroke:#263238; stroke-miterlimit:10;"></rect><path d="M329.51,286.49c12.91,.89,24.9,1.6,26.59,1.32,3.82-.64,4.45-3.82,5.72-5.09,1.27-1.27,12.4-24.17,12.4-24.17" style="fill:none; stroke:#263238; stroke-miterlimit:10;"></path><path d="M178.2,283.76c12.9-.2,24.29-.58,25.26-.72,2.23-.32,16.54-10.18,44.2-8.27,27.67,1.91,35.93,2.23,39.75,5.09,3.82,2.86,6.68,4.13,7.63,4.13,.49,0,15.45,1.16,30.46,2.22" style="fill:none; stroke:#263238; stroke-miterlimit:10;"></path><path d="M132.25,266.05c2.2,6.77,5.35,15.36,7.61,16.68,1.88,1.1,16.82,1.27,31.76,1.12" style="fill:none; stroke:#263238; stroke-miterlimit:10;"></path><path d="M129.68,257.61s.57,2.07,1.48,5.02" style="fill:none; stroke:#263238; stroke-miterlimit:10;"></path><line x1="384.4" y1="308.17" x2="384.4" y2="350.46" style="fill:none; stroke:#263238; stroke-miterlimit:10;"></line><line x1="115.69" y1="299.26" x2="115.69" y2="345.05" style="fill:none; stroke:#263238; stroke-miterlimit:10;"></line><path d="M211.09,250.29s-7.95,7.95-7.95,17.49,2.54,20.99,1.27,26.08" style="fill:none; stroke:#263238; stroke-miterlimit:10;"></path><path d="M294.69,259.28c.83,2.52,1.4,5.49,1.3,8.82-.32,10.81-3.5,18.44-1.59,26.08" style="fill:none; stroke:#263238; stroke-miterlimit:10;"></path><path d="M289.64,250.29s1.8,1.88,3.48,5.2" style="fill:none; stroke:#263238; stroke-miterlimit:10;"></path><g><path d="M304.84,305.65c-1.71,0-3.33,.63-4.61,1.81-1.42,1.31-2.21,3.1-2.21,5.03v19.68c0,1.84,.72,3.57,2.03,4.87,1.29,1.27,2.99,1.97,4.8,1.97,.03,0,.06,0,.09,0l64.52-.84c3.65-.05,6.61-2.94,6.74-6.59l.48-13.44c.13-3.65-2.62-6.75-6.27-7.06l-65-5.4c-.2-.02-.39-.02-.59-.02Z" style="fill:#263238; stroke:#263238; stroke-miterlimit:10;"></path><path d="M304.86,342c-2.6,0-5.05-1-6.91-2.84-1.89-1.86-2.93-4.35-2.93-7v-19.68c0-2.74,1.16-5.38,3.18-7.24,2.02-1.86,4.74-2.79,7.48-2.56l65,5.4c5.24,.44,9.2,4.9,9.02,10.15l-.48,13.44c-.19,5.25-4.45,9.42-9.7,9.48l-64.52,.84s-.09,0-.13,0Zm-.02-36.35c-1.71,0-3.33,.63-4.61,1.81-1.42,1.31-2.21,3.1-2.21,5.03v19.68c0,1.84,.72,3.57,2.03,4.87,1.29,1.27,2.99,1.97,4.8,1.97,.03,0,.06,0,.09,0l64.52-.84c3.65-.05,6.61-2.94,6.74-6.59l.48-13.44c.13-3.65-2.62-6.75-6.27-7.06l-65-5.4c-.2-.02-.39-.02-.59-.02Z" style="fill:#fff; stroke:#263238; stroke-miterlimit:10;"></path><path d="M372.27,311.49v.87h-3.27v-1.4l-1-.08v1.49h-3.27v-1.76l-1-.08v1.84h-3.27v-2.11l-1-.08v2.2h-3.27v-2.47l-1-.08v2.55h-3.27v-2.82l-1-.08v2.91h-3.27v-3.18l-1-.08v3.26h-3.27v-3.42h1.41l-12.04-1h-2.19v-.18l-1-.08v.26h-3.27v-.54l-1-.08v.62h-3.27v-.89l-1-.08v.97h-3.27v-1.25l-1-.08v1.33h-3.27v-1.6l-1-.08v1.68h-3.27v-1.96l-1-.08v2.04h-3.27v-2.29s-.04,0-.06,0c-.32,0-.63,.03-.94,.07v2.22h-3.27v-.82c-.13,.11-.27,.21-.4,.33-.48,.44-.88,.95-1.21,1.49h.61v3.42h-1.6s0,.09,0,.13v.87h1.6v3.42h-1.6v1h1.6v3.42h-1.6v1h1.6v3.42h-1.6v1h1.6v3.42h-1.6v1h1.6v3.42h-1.21c.12,.34,.26,.68,.44,1h.77v1.12c.14,.16,.28,.32,.43,.47,.18,.18,.37,.34,.57,.5v-2.09h3.27v3.49c.32,.04,.64,.07,.96,.07h.04v-3.56h3.27v3.52h1v-3.52h3.27v3.46h1v-3.46h3.27v3.41h1v-3.41h3.27v3.35h1v-3.35h3.27v3.3h1v-3.3h3.27v3.24h1v-3.24h3.27v3.19h1v-3.19h3.27v3.13h1v-3.13h3.27v3.08h1v-3.08h3.27v3.02h1v-3.02h3.27v2.97h1v-2.97h3.27v2.91h1v-2.91h3.27v2.86h1v-2.86h3.27v2.8h1v-2.8h3.27v2.74h1v-2.74h3.27v2.08c.35-.16,.69-.35,1-.57v-1.51h1.56c.24-.31,.44-.65,.63-1h-2.19v-3.42h2.96l.04-1h-2.99v-3.42h3.12l.04-1h-3.15v-3.42h3.27l.04-1h-3.31v-3.42h3.41c0-.34-.03-.67-.08-1h-3.33v-3.42h1.71c-.33-.37-.7-.71-1.11-1h-.6v-.39c-.32-.18-.65-.34-1-.48Zm-68.37,22.95h-3.27v-3.42h3.27v3.42Zm0-4.42h-3.27v-3.42h3.27v3.42Zm0-4.42h-3.27v-3.42h3.27v3.42Zm0-4.42h-3.27v-3.42h3.27v3.42Zm0-4.42h-3.27v-3.42h3.27v3.42Zm0-4.42h-3.27v-3.42h3.27v3.42Zm4.27,22.08h-3.27v-3.42h3.27v3.42Zm0-4.42h-3.27v-3.42h3.27v3.42Zm0-4.42h-3.27v-3.42h3.27v3.42Zm0-4.42h-3.27v-3.42h3.27v3.42Zm0-4.42h-3.27v-3.42h3.27v3.42Zm0-4.42h-3.27v-3.42h3.27v3.42Zm4.27,22.08h-3.27v-3.42h3.27v3.42Zm0-4.42h-3.27v-3.42h3.27v3.42Zm0-4.42h-3.27v-3.42h3.27v3.42Zm0-4.42h-3.27v-3.42h3.27v3.42Zm0-4.42h-3.27v-3.42h3.27v3.42Zm0-4.42h-3.27v-3.42h3.27v3.42Zm4.27,22.08h-3.27v-3.42h3.27v3.42Zm0-4.42h-3.27v-3.42h3.27v3.42Zm0-4.42h-3.27v-3.42h3.27v3.42Zm0-4.42h-3.27v-3.42h3.27v3.42Zm0-4.42h-3.27v-3.42h3.27v3.42Zm0-4.42h-3.27v-3.42h3.27v3.42Zm4.27,22.08h-3.27v-3.42h3.27v3.42Zm0-4.42h-3.27v-3.42h3.27v3.42Zm0-4.42h-3.27v-3.42h3.27v3.42Zm0-4.42h-3.27v-3.42h3.27v3.42Zm0-4.42h-3.27v-3.42h3.27v3.42Zm0-4.42h-3.27v-3.42h3.27v3.42Zm4.27,22.08h-3.27v-3.42h3.27v3.42Zm0-4.42h-3.27v-3.42h3.27v3.42Zm0-4.42h-3.27v-3.42h3.27v3.42Zm0-4.42h-3.27v-3.42h3.27v3.42Zm0-4.42h-3.27v-3.42h3.27v3.42Zm0-4.42h-3.27v-3.42h3.27v3.42Zm4.27,22.08h-3.27v-3.42h3.27v3.42Zm0-4.42h-3.27v-3.42h3.27v3.42Zm0-4.42h-3.27v-3.42h3.27v3.42Zm0-4.42h-3.27v-3.42h3.27v3.42Zm0-4.42h-3.27v-3.42h3.27v3.42Zm0-4.42h-3.27v-3.42h3.27v3.42Zm4.27,22.08h-3.27v-3.42h3.27v3.42Zm0-4.42h-3.27v-3.42h3.27v3.42Zm0-4.42h-3.27v-3.42h3.27v3.42Zm0-4.42h-3.27v-3.42h3.27v3.42Zm0-4.42h-3.27v-3.42h3.27v3.42Zm0-4.42h-3.27v-3.42h3.27v3.42Zm4.27,22.08h-3.27v-3.42h3.27v3.42Zm0-4.42h-3.27v-3.42h3.27v3.42Zm0-4.42h-3.27v-3.42h3.27v3.42Zm0-4.42h-3.27v-3.42h3.27v3.42Zm0-4.42h-3.27v-3.42h3.27v3.42Zm0-4.42h-3.27v-3.42h3.27v3.42Zm4.27,22.08h-3.27v-3.42h3.27v3.42Zm0-4.42h-3.27v-3.42h3.27v3.42Zm0-4.42h-3.27v-3.42h3.27v3.42Zm0-4.42h-3.27v-3.42h3.27v3.42Zm0-4.42h-3.27v-3.42h3.27v3.42Zm0-4.42h-3.27v-3.42h3.27v3.42Zm4.27,22.08h-3.27v-3.42h3.27v3.42Zm0-4.42h-3.27v-3.42h3.27v3.42Zm0-4.42h-3.27v-3.42h3.27v3.42Zm0-4.42h-3.27v-3.42h3.27v3.42Zm0-4.42h-3.27v-3.42h3.27v3.42Zm4.27,17.66h-3.27v-3.42h3.27v3.42Zm0-4.42h-3.27v-3.42h3.27v3.42Zm0-4.42h-3.27v-3.42h3.27v3.42Zm0-4.42h-3.27v-3.42h3.27v3.42Zm0-4.42h-3.27v-3.42h3.27v3.42Zm4.27,17.66h-3.27v-3.42h3.27v3.42Zm0-4.42h-3.27v-3.42h3.27v3.42Zm0-4.42h-3.27v-3.42h3.27v3.42Zm0-4.42h-3.27v-3.42h3.27v3.42Zm0-4.42h-3.27v-3.42h3.27v3.42Zm4.27,17.66h-3.27v-3.42h3.27v3.42Zm0-4.42h-3.27v-3.42h3.27v3.42Zm0-4.42h-3.27v-3.42h3.27v3.42Zm0-4.42h-3.27v-3.42h3.27v3.42Zm0-4.42h-3.27v-3.42h3.27v3.42Zm4.27,17.66h-3.27v-3.42h3.27v3.42Zm0-4.42h-3.27v-3.42h3.27v3.42Zm0-4.42h-3.27v-3.42h3.27v3.42Zm0-4.42h-3.27v-3.42h3.27v3.42Zm0-4.42h-3.27v-3.42h3.27v3.42Zm4.27,17.66h-3.27v-3.42h3.27v3.42Zm0-4.42h-3.27v-3.42h3.27v3.42Zm0-4.42h-3.27v-3.42h3.27v3.42Zm0-4.42h-3.27v-3.42h3.27v3.42Zm0-4.42h-3.27v-3.42h3.27v3.42Zm4.27,17.66h-3.27v-3.42h3.27v3.42Zm0-4.42h-3.27v-3.42h3.27v3.42Zm0-4.42h-3.27v-3.42h3.27v3.42Zm0-4.42h-3.27v-3.42h3.27v3.42Zm0-4.42h-3.27v-3.42h3.27v3.42Z" style="fill:#fff;"></path><g><circle cx="364.15" cy="323.71" r="9.05" transform="translate(-64.84 92.72) rotate(-13.34)" style="fill:#fff; stroke:#263238; stroke-miterlimit:10;"></circle><circle cx="364.15" cy="323.71" r="5.93" style="fill:#fff; stroke:#263238; stroke-miterlimit:10;"></circle></g></g><path d="M110.63,257.51s2.11,3.31,4.51,6.92c2.41,3.61,7.22-3.91,7.22-6.62s-11.74-.3-11.74-.3Z" style="fill:#fff; stroke:#263238; stroke-miterlimit:10;"></path><path d="M391.47,258.72s-2.11,3.31-4.52,6.92c-2.41,3.61-7.22-3.91-7.22-6.62s11.74-.3,11.74-.3Z" style="fill:#fff; stroke:#263238; stroke-miterlimit:10;"></path></g></g></g></svg>